<?xml version="1.0" encoding="utf-8"?>
<!-- Generator: Adobe Illustrator 27.5.0, SVG Export Plug-In . SVG Version: 6.00 Build 0)  -->
<svg version="1.1" id="Layer_1" xmlns="http://www.w3.org/2000/svg" xmlns:xlink="http://www.w3.org/1999/xlink" x="0px" y="0px"
	 viewBox="0 0 515.284 330.581" style="enable-background:new 0 0 515.284 330.581;" xml:space="preserve">
<g>
	<linearGradient id="SVGID_1_" gradientUnits="userSpaceOnUse" x1="276.4666" y1="423.1927" x2="276.4666" y2="231.1082">
		<stop  offset="0" style="stop-color:#D2DE28"/>
		<stop  offset="0.4988" style="stop-color:#C6D42D"/>
		<stop  offset="1" style="stop-color:#4E8C3B"/>
	</linearGradient>
	<ellipse style="fill:url(#SVGID_1_);" cx="276.467" cy="292.279" rx="231.088" ry="33.343"/>
	<ellipse style="opacity:0.28;fill:#258C43;" cx="266.539" cy="287.14" rx="166.997" ry="24.096"/>
	<g>
		<g>
			<g>
				
					<linearGradient id="SVGID_00000001645891078334358880000017116841570274746758_" gradientUnits="userSpaceOnUse" x1="75.1929" y1="207.8806" x2="152.1686" y2="207.8806">
					<stop  offset="0" style="stop-color:#EF9A21"/>
					<stop  offset="0.9995" style="stop-color:#824744"/>
				</linearGradient>
				<path style="fill:url(#SVGID_00000001645891078334358880000017116841570274746758_);" d="M151.434,267.047
					c-6.451-37.947-5.286-76.23-5.467-114.592c-0.012-2.542-0.024-5.084-0.036-7.625c-0.032-6.733-5.222-8.564-11.146-8.282
					c-5.527,0.262-11.017,1.293-16.263,3.052c-1.781,0.598-3.601,1.323-4.874,2.704c-3.486,3.782-0.925,12.463-0.535,17.009
					c0.584,6.803,1.124,13.612,1.486,20.431c0.189,3.566,0.519,7.182-0.043,10.729c-0.046,0.288-0.111,1.29-0.461,1.405
					c-0.493,0.162-1.546-0.934-1.889-1.209c-1.204-0.963-2.386-1.955-3.543-2.974c-2.245-1.976-4.4-4.056-6.462-6.222
					c-5.388-5.659-9.843-12.165-13.544-19.033c-1.853-3.439-3.519-6.979-5.01-10.59c-0.669-1.62-0.72-3.063-2.41-3.421
					c-1.467-0.311-3.556,1.236-4.448,2.226c-2.556,2.836-1.524,6.852-0.456,10.133c6.138,18.862,17.837,33.383,31.449,47.38
					c3.362,3.457,6.715,7.336,7.608,12.229c0.498,2.73,0.294,5.508-0.084,8.239c-0.399,2.882-0.918,5.751-1.389,8.622
					c-1.679,10.232-3.372,20.457-5.15,30.672c-0.311,1.786-0.608,3.699,0.134,5.354c2.308,5.147,13.217,5.36,17.907,5.718
					c6.985,0.532,14.303,0.279,21.031-1.834c1.247-0.392,2.504-0.958,3.315-1.984C152.977,272.877,151.874,269.639,151.434,267.047z
					"/>
				<path style="fill:#823F1A;" d="M132.836,279.576c-1.935,0-3.951-0.081-6.053-0.241c-0.427-0.033-0.905-0.064-1.424-0.098
					c-5.454-0.358-14.583-0.955-16.761-5.816c-0.81-1.806-0.449-3.88-0.159-5.547c1.808-10.391,3.543-20.881,5.149-30.668
					c0.132-0.807,0.269-1.614,0.405-2.42c0.343-2.029,0.697-4.126,0.983-6.193c0.335-2.42,0.607-5.279,0.086-8.134
					c-0.896-4.913-4.351-8.799-7.519-12.056c-12.541-12.896-25.041-27.578-31.527-47.51c-1.227-3.768-2.012-7.644,0.525-10.459
					c0.824-0.914,3.078-2.682,4.764-2.329c1.508,0.32,1.885,1.436,2.284,2.617c0.108,0.32,0.222,0.658,0.364,1.003
					c1.511,3.658,3.192,7.211,4.995,10.559c3.946,7.324,8.485,13.704,13.492,18.962c2.086,2.19,4.253,4.276,6.441,6.202
					c1.156,1.017,2.345,2.014,3.532,2.963c0.07,0.056,0.169,0.145,0.286,0.251c0.693,0.626,1.127,0.938,1.294,0.901
					c0.031-0.04,0.122-0.253,0.21-0.96l0.023-0.18c0.481-3.037,0.298-6.182,0.12-9.224c-0.027-0.479-0.055-0.958-0.081-1.436
					c-0.385-7.238-0.967-14.385-1.486-20.42c-0.086-1.001-0.282-2.23-0.49-3.532c-0.76-4.755-1.706-10.673,1.112-13.732
					c1.368-1.485,3.305-2.221,5.013-2.794c5.284-1.772,10.786-2.805,16.353-3.069c4.141-0.196,7.231,0.638,9.173,2.481
					c1.529,1.45,2.31,3.513,2.322,6.133l0.036,7.624c0.027,5.758,0.024,11.609,0.021,17.266c-0.018,31.98-0.037,65.048,5.441,97.273
					l0,0c0.071,0.418,0.159,0.853,0.25,1.298c0.481,2.366,1.026,5.049-0.597,7.102c-0.946,1.197-2.437,1.769-3.477,2.095
					C143.488,278.884,138.509,279.576,132.836,279.576z M80.84,148.723c-1.217,0-2.934,1.19-3.804,2.156
					c-2.426,2.691-1.471,6.474-0.386,9.808c6.444,19.801,18.885,34.412,31.371,47.251c3.237,3.327,6.767,7.305,7.697,12.401
					c0.538,2.947,0.26,5.872-0.082,8.345c-0.287,2.077-0.643,4.18-0.986,6.213c-0.136,0.806-0.272,1.612-0.405,2.418
					c-1.606,9.789-3.342,20.281-5.151,30.675c-0.275,1.577-0.616,3.54,0.111,5.161c2.014,4.494,11.241,5.099,16.197,5.423
					c0.522,0.035,1.002,0.066,1.432,0.098c8.184,0.626,15.021,0.029,20.906-1.819c0.955-0.3,2.322-0.821,3.153-1.873
					c1.432-1.811,0.919-4.332,0.467-6.557c-0.092-0.453-0.182-0.894-0.254-1.319l0,0c-5.488-32.281-5.469-65.378-5.451-97.385
					c0.003-5.657,0.007-11.507-0.021-17.263l-0.036-7.625c-0.012-2.43-0.723-4.332-2.115-5.652
					c-1.804-1.714-4.723-2.485-8.683-2.299c-5.506,0.262-10.947,1.283-16.173,3.035c-1.629,0.547-3.474,1.245-4.735,2.615
					c-2.6,2.821-1.682,8.562-0.945,13.175c0.21,1.313,0.409,2.554,0.496,3.579c0.519,6.041,1.102,13.194,1.487,20.442
					c0.025,0.477,0.053,0.954,0.081,1.432c0.179,3.077,0.364,6.258-0.128,9.367l-0.021,0.157c-0.085,0.682-0.205,1.361-0.666,1.512
					c-0.538,0.183-1.199-0.366-1.945-1.039c-0.105-0.095-0.193-0.175-0.256-0.225c-1.195-0.955-2.391-1.96-3.555-2.984
					c-2.203-1.938-4.384-4.038-6.484-6.242c-5.047-5.3-9.621-11.728-13.596-19.105c-1.814-3.368-3.504-6.941-5.024-10.621
					c-0.148-0.359-0.267-0.71-0.38-1.043c-0.394-1.167-0.655-1.938-1.791-2.179C81.063,148.733,80.954,148.723,80.84,148.723z"/>
			</g>
			<path style="opacity:0.43;fill:#7A4916;" d="M114.215,173.476c3.315-0.587,6.658-1.02,10.014-1.266
				c5.069-0.372,10.167-0.355,15.232,0.072c2.183,0.184,4.36,0.448,6.525,0.786c0.003-6.868,0.013-13.74-0.019-20.614
				c-0.012-2.542-0.024-5.083-0.036-7.625c-0.032-6.733-5.222-8.564-11.146-8.282c-5.527,0.262-11.017,1.293-16.263,3.052
				c-1.781,0.597-3.601,1.323-4.874,2.704c-3.486,3.782-0.925,12.463-0.535,17.009C113.518,164.031,113.898,168.751,114.215,173.476
				z"/>
			<path style="opacity:0.43;fill:#7A4916;" d="M94.655,179.128c1.346-0.559,2.708-1.08,4.08-1.572
				c-3.868-4.67-7.205-9.781-10.079-15.115c-1.853-3.439-3.519-6.98-5.01-10.59c-0.669-1.62-0.72-3.062-2.41-3.421
				c-1.467-0.311-3.556,1.236-4.448,2.227c-2.556,2.836-1.524,6.852-0.456,10.133c2.612,8.028,6.239,15.264,10.585,22.013
				C89.432,181.448,92.016,180.223,94.655,179.128z"/>
			<path style="fill:#ED9D8A;" d="M113.916,237.259c-1.679,10.232-3.372,20.457-5.15,30.672c-0.302,1.736-0.583,3.588,0.082,5.21
				c0.126-1.815,0.31-3.626,0.553-5.429c0.806-5.967,2.152-11.842,3.493-17.706c1.338-5.851,2.689-11.715,3.472-17.672
				c0.709-5.4,1.66-10.889,0.428-16.286c-0.057-0.248-0.128-0.493-0.191-0.74c-0.947-1.657-2.022-3.247-3.25-4.751
				c-1.854-2.273-4-4.262-5.98-6.419c-2.422-2.639-4.755-5.358-7.066-8.095c-1.113-1.317-2.246-2.62-3.306-3.981
				c-0.932-1.196-1.852-2.4-2.759-3.614c-1.94-2.598-3.818-5.242-5.609-7.945c-3.645-5.501-6.952-11.257-9.544-17.334
				c-1.439-3.375-2.647-6.858-3.521-10.421c-0.858,2.53-0.062,5.504,0.764,8.04c6.138,18.862,17.837,33.383,31.449,47.38
				c3.362,3.457,6.715,7.336,7.608,12.229c0.498,2.73,0.294,5.508-0.084,8.239C114.906,231.519,114.387,234.388,113.916,237.259z"/>
			<path style="fill:#ED9D8A;" d="M119.331,254.988c-0.451,2.24-0.87,4.496-1.036,6.778c-0.132,1.81-0.12,3.671,0.335,5.436
				c0.365-0.775,0.611-1.6,0.771-2.447c0.629-3.328,0.129-6.714-0.007-10.08C119.373,254.78,119.352,254.884,119.331,254.988z"/>
			<path style="fill:#ED9D8A;" d="M122.13,217.107c0.027,1.318,0.104,2.646,0.348,3.944c0.135,0.719,0.322,1.442,0.624,2.112
				c0.848-4.444,0.235-9.014-0.708-13.445C122.233,212.178,122.08,214.641,122.13,217.107z"/>
			<path style="fill:#ED9D8A;" d="M126.303,177.282c-0.167-4.072-0.781-8.099-1.403-12.125c0.056,5.893,0.347,11.784,1.314,17.595
				C126.355,180.933,126.378,179.105,126.303,177.282z"/>
			<path style="opacity:0.43;fill:#7A4916;" d="M79.653,155.482c2.532,5.193,4.987,10.428,7.768,15.494
				c2.712,4.94,5.734,9.692,9.345,14.029c1.756,2.11,3.626,4.126,5.606,6.028c1.535,1.475,3.136,2.889,4.712,4.321
				c1.609,1.462,3.248,2.904,5.014,4.177c1.382,0.996,2.928,2.024,4.621,2.406c0.33-1.433,0.337-2.915,0.084-4.363
				c-0.394-2.261-1.284-4.404-2.342-6.441c-0.064,0.339-0.17,0.68-0.365,0.744c-0.493,0.162-1.546-0.934-1.889-1.209
				c-1.204-0.963-2.386-1.955-3.543-2.974c-2.245-1.975-4.4-4.056-6.462-6.222c-5.388-5.659-9.843-12.165-13.544-19.033
				c-1.853-3.439-3.519-6.98-5.01-10.59c-0.669-1.62-0.72-3.062-2.41-3.421c-1.467-0.311-3.556,1.236-4.448,2.227
				c-0.333,0.37-0.602,0.76-0.822,1.165C77.845,151.981,78.925,153.99,79.653,155.482z"/>
			<path style="opacity:0.43;fill:#B38113;" d="M120.972,171.785c-0.341-2.679-0.673-5.368-1.077-8.044
				c-0.015,2.543,0.034,5.088,0.124,7.629c0.121,3.414,0.31,6.82,0.331,10.237c0.021,3.258,0.023,6.522,0.325,9.769
				c0.248,2.667,0.688,5.398,1.725,7.886c0.498-3.036,0.575-6.132,0.462-9.202C122.638,183.944,121.744,177.85,120.972,171.785z"/>
			<path style="opacity:0.43;fill:#B38113;" d="M117.25,244.543c-0.568,2.28-1.143,4.557-1.702,6.839
				c-1.315,5.37-2.535,10.774-3.308,16.252c-0.39,2.768-0.663,5.568-0.744,8.371c1.141,0.688,2.521,1.204,4.004,1.595
				c0.28-2.881,0.443-5.771,0.555-8.663c0.111-2.886,0.405-5.759,0.681-8.633C117.237,255.09,117.758,249.778,117.25,244.543z"/>
			<path style="opacity:0.43;fill:#B38113;" d="M121.195,225.416c-0.391,3.866-0.641,7.754-0.562,11.641
				c0.069,3.438,0.397,6.898,1.265,10.232c0.528-1.391,0.859-2.86,1.084-4.324c0.57-3.712,0.521-7.536,0.14-11.264
				c-0.289-2.823-0.762-5.723-1.689-8.433C121.351,223.983,121.267,224.699,121.195,225.416z"/>
			<path style="opacity:0.43;fill:#B38113;" d="M129.101,273.105c-0.294-2.771-0.537-5.54-0.699-8.322
				c-0.306-5.264-0.459-10.592-1.548-15.765c-0.288,2.275-0.506,4.56-0.656,6.848c-0.505,7.694-0.299,15.401,0.071,23.098
				c0.187,0.013,0.368,0.026,0.538,0.039c0.949,0.072,1.905,0.127,2.865,0.168C129.529,277.145,129.315,275.124,129.101,273.105z"/>
			<path style="opacity:0.43;fill:#B38113;" d="M151.434,267.047c-6.451-37.947-5.286-76.23-5.467-114.592
				c-0.012-2.542-0.024-5.083-0.036-7.625c-0.032-6.733-5.222-8.564-11.146-8.282c-0.038,0.002-0.076,0.006-0.113,0.007
				c0.291,0.242,0.562,0.519,0.808,0.838c1.398,1.815,1.755,4.189,1.906,6.415c0.18,2.653,0.059,5.333,0.061,7.99
				c0.002,3.03,0.013,6.06,0.069,9.089c0.105,5.637,0.553,11.288,0.39,16.926c-0.077,2.65-0.331,5.3-0.88,7.896
				c-0.584,2.768-1.628,5.392-2.414,8.104c-1.355,4.672-1.881,9.377-0.878,14.175c0.558,2.671,1.599,5.179,2.307,7.805
				c0.678,2.515,1.08,5.098,1.328,7.688c0.514,5.367,0.363,10.765,0.43,16.149c0.074,5.838,0.267,11.669,0.273,17.509
				c0.008,7.285-0.031,14.582,0.243,21.863c3.239-0.291,6.443-0.865,9.524-1.833c1.247-0.392,2.504-0.958,3.315-1.984
				C152.977,272.877,151.874,269.639,151.434,267.047z"/>
			<path style="opacity:0.43;fill:#B38113;" d="M140.415,261.857c-0.052,0.996-0.094,1.992-0.113,2.99
				c-0.085,4.61,0.208,9.241,1.064,13.775c0.654-0.1,1.306-0.213,1.954-0.341C143.24,272.754,142.389,267.056,140.415,261.857z"/>
			<path style="opacity:0.43;fill:#7A4916;" d="M151.434,267.047c-6.451-37.947-5.286-76.23-5.467-114.592
				c-0.012-2.542-0.024-5.083-0.036-7.625c-0.017-3.609-1.524-5.8-3.824-7.021c-0.843,10.016-0.749,20.085-0.689,30.128
				c0.03,5.053,0.25,10.165-0.097,15.21c-0.167,2.419-0.524,4.841-1.259,7.157c-0.602,1.896-1.462,3.696-2.292,5.499
				c-1.726,3.749-3.711,8.503-1.619,12.512c0.923,1.77,2.377,3.169,3.488,4.811c1.216,1.798,1.851,3.825,2.104,5.969
				c0.278,2.352,0.106,4.717,0.212,7.076c0.117,2.61,0.187,5.223,0.258,7.834c0.143,5.255,0.291,10.515,0.826,15.747
				c0.946,9.253,3.008,18.339,4.423,27.523c0.125-0.038,0.253-0.067,0.378-0.106c1.247-0.392,2.504-0.958,3.315-1.984
				C152.977,272.877,151.874,269.639,151.434,267.047z"/>
			<g>
				
					<linearGradient id="SVGID_00000095328734818485797670000013338498235302279579_" gradientUnits="userSpaceOnUse" x1="146.3647" y1="161.9328" x2="173.1797" y2="186.3101">
					<stop  offset="0" style="stop-color:#EF9A21"/>
					<stop  offset="0.9995" style="stop-color:#824744"/>
				</linearGradient>
				<path style="fill:url(#SVGID_00000095328734818485797670000013338498235302279579_);" d="M181.482,143.735
					c-0.051-0.517-0.12-1.027-0.208-1.527c-0.28-1.588-1.244-4.505-3.493-3.888c-2.902,0.796-3.001,4.868-3.12,7.103
					c-0.245,4.598-0.85,9.435-2.478,13.775c-4.255,11.344-12.173,21.604-21.841,28.87c-4.303,3.234-10.527,6.805-12.883,11.841
					c-1.501,3.208-0.817,7.729,2.365,9.283c3.045,1.487,6.629-0.3,9.411-2.235c11.775-8.185,21.016-20.083,26.618-33.24
					c2.845-6.682,4.766-13.789,5.414-21.032C181.522,149.823,181.775,146.673,181.482,143.735z"/>
				<path style="fill:#823F1A;" d="M142.281,210.081c-0.933,0-1.799-0.197-2.604-0.591c-3.391-1.656-4.05-6.453-2.52-9.723
					c1.933-4.133,6.375-7.266,10.295-10.03c0.953-0.673,1.853-1.307,2.689-1.936c9.839-7.395,17.556-17.596,21.73-28.722
					c1.374-3.663,2.155-8.009,2.457-13.675l0.013-0.254c0.122-2.364,0.325-6.321,3.352-7.152c0.682-0.188,1.316-0.102,1.881,0.255
					c1.402,0.887,1.907,3.207,2.028,3.896c0.088,0.5,0.159,1.022,0.211,1.552c0.287,2.881,0.062,5.908-0.215,9.014
					c-0.627,7.019-2.457,14.13-5.439,21.133c-5.771,13.554-15.265,25.41-26.734,33.383
					C146.685,209.135,144.323,210.081,142.281,210.081z M178.378,138.568c-0.162,0-0.332,0.025-0.509,0.074
					c-2.563,0.703-2.751,4.359-2.863,6.543l-0.014,0.256c-0.306,5.737-1.1,10.145-2.499,13.874
					c-4.217,11.243-12.013,21.549-21.952,29.02c-0.845,0.635-1.749,1.273-2.706,1.948c-3.851,2.716-8.217,5.795-10.075,9.768
					c-1.398,2.989-0.835,7.356,2.209,8.843c2.329,1.139,5.299,0.417,9.075-2.208c11.367-7.903,20.779-19.657,26.501-33.098
					c2.954-6.939,4.767-13.981,5.388-20.931c0.275-3.073,0.498-6.065,0.217-8.887l0,0c-0.051-0.514-0.12-1.019-0.205-1.503
					c-0.226-1.281-0.798-2.859-1.729-3.449C178.955,138.65,178.678,138.568,178.378,138.568z"/>
			</g>
			<path style="fill:#ED9D8A;" d="M139.986,199.296c1.856-2.185,4.065-4.072,6.304-5.852c5.631-4.475,11.289-8.977,15.974-14.475
				c4.385-5.146,8.065-10.942,10.999-17.027c2.948-6.113,5.128-12.606,6.384-19.279c0.209-1.109,0.381-2.224,0.536-3.342
				c-0.553-0.785-1.331-1.297-2.403-1.003c-2.902,0.796-3.001,4.868-3.12,7.103c-0.245,4.598-0.85,9.435-2.478,13.775
				c-4.255,11.344-12.173,21.604-21.841,28.87c-4.303,3.234-10.527,6.805-12.883,11.841c-0.69,1.475-0.912,3.227-0.648,4.841
				C137.41,202.727,138.627,200.896,139.986,199.296z"/>
			<path style="opacity:0.43;fill:#7A4916;" d="M181.482,143.735c-0.051-0.517-0.12-1.027-0.208-1.527
				c-0.232-1.318-0.938-3.543-2.455-3.913c0.042,0.499,0.092,0.996,0.118,1.496c0.367,7.108-0.834,14.259-2.933,21.036
				c-2.125,6.864-5.194,13.454-9.025,19.531c-1.934,3.067-4.07,6.005-6.458,8.734c-2.584,2.954-5.42,5.684-8.404,8.23
				c-1.339,1.142-2.744,2.201-4.086,3.337c-1.102,0.934-2.201,1.882-3.406,2.684c-1.049,0.698-2.352,1.462-3.662,1.379
				c-0.945-0.059-1.931-0.452-2.476-1.257c-1.111-1.64-0.151-4.051,0.565-5.646c0.168-0.375,0.353-0.745,0.541-1.113
				c-0.862,1.002-1.6,2.063-2.133,3.203c-1.501,3.208-0.817,7.729,2.365,9.283c3.045,1.487,6.629-0.301,9.411-2.234
				c11.775-8.185,21.016-20.083,26.618-33.24c2.845-6.682,4.766-13.789,5.414-21.032
				C181.522,149.823,181.775,146.673,181.482,143.735z"/>
			<path style="opacity:0.43;fill:#B38113;" d="M132.142,186.991c-0.151-0.611-0.423-1.164-0.866-1.619
				c-0.493-0.505-1.412,0.066-1.58,0.62c-0.12,0.395-0.222,0.796-0.275,1.206c-0.053,0.41-0.096,0.841,0.049,1.237
				c0.048,0.131,0.119,0.24,0.206,0.331c0.011,0.043,0.017,0.087,0.03,0.13c0.074,0.26,0.188,0.54,0.383,0.734
				c0.366,0.363,0.897,0.3,1.303,0.044c0.338-0.213,0.59-0.589,0.698-0.97C132.247,188.147,132.283,187.557,132.142,186.991z"/>
			<g style="opacity:0.43;">
				<path style="opacity:0.43;fill:#B38113;" d="M135.199,174.371c0.006,0.009,0.011,0.018,0.017,0.027
					c0.001,0.001,0.003,0.002,0.003,0.003C135.212,174.392,135.206,174.382,135.199,174.371z"/>
				<path style="opacity:0.43;fill:#B38113;" d="M135.499,174.919c-0.064-0.193-0.168-0.355-0.283-0.52
					c-0.039-0.075-0.093-0.135-0.17-0.172c-0.064-0.031-0.13-0.043-0.199-0.036c-0.182,0.002-0.376,0.085-0.498,0.223
					c-0.295,0.333-0.437,0.749-0.404,1.193c0.019,0.26,0.127,0.581,0.336,0.767c0.073,0.205,0.167,0.4,0.304,0.576
					c0.077,0.099,0.231,0.097,0.338,0.069c0.138-0.036,0.275-0.127,0.348-0.252c0.227-0.388,0.362-0.808,0.344-1.261
					C135.607,175.305,135.561,175.108,135.499,174.919z"/>
				<path style="opacity:0.43;fill:#B38113;" d="M135.229,174.411c-0.002-0.004-0.007-0.005-0.009-0.009
					c0.017,0.025,0.035,0.051,0.052,0.076C135.258,174.455,135.243,174.433,135.229,174.411z"/>
			</g>
			<path style="opacity:0.43;fill:#B38113;" d="M128.109,162.417c-0.056-0.164-0.243-0.231-0.398-0.23
				c-0.199,0.002-0.379,0.094-0.52,0.232c-0.184,0.182-0.336,0.484-0.306,0.758c-0.027,0.098-0.057,0.194-0.066,0.299
				c-0.028,0.341,0.011,0.659,0.102,0.987c0.038,0.137,0.207,0.192,0.33,0.19c0.16-0.002,0.321-0.075,0.431-0.193
				c0.275-0.293,0.453-0.636,0.524-1.033C128.27,163.083,128.222,162.746,128.109,162.417z"/>
			<path style="opacity:0.43;fill:#B38113;" d="M130.179,215.97c-0.293-0.458-0.84-0.198-1.103,0.152
				c-0.155,0.207-0.261,0.446-0.326,0.695c-0.163,0.26-0.194,0.568-0.195,0.882c-0.002,0.651,0.237,1.286,0.651,1.785
				c0.258,0.312,0.782-0.004,0.938-0.251C130.753,218.269,130.803,216.945,130.179,215.97z"/>
			<path style="opacity:0.43;fill:#B38113;" d="M133.566,217.824c-0.564,0-1.114,1.071-0.426,1.071
				C133.703,218.896,134.253,217.824,133.566,217.824z"/>
			<path style="opacity:0.43;fill:#B38113;" d="M134.218,238.693c-0.289-0.523-1.063-0.136-1.207,0.318
				c-0.041,0.131-0.076,0.262-0.108,0.394c-0.282,0.323-0.358,0.848-0.366,1.258c-0.009,0.496,0.01,0.992,0.139,1.473
				c0.144,0.536,0.415,0.957,0.872,1.276c0.142,0.1,0.372,0.027,0.507-0.042c0.184-0.094,0.331-0.246,0.409-0.44
				C135.01,241.571,134.927,239.979,134.218,238.693z"/>
			<path style="opacity:0.43;fill:#B38113;" d="M141.281,250.983c-0.016-0.072-0.032-0.146-0.059-0.214
				c-0.025-0.065-0.08-0.124-0.131-0.172c-0.093-0.089-0.237-0.129-0.364-0.107c-0.047,0.012-0.094,0.025-0.142,0.037
				c-0.077,0.027-0.146,0.069-0.205,0.124c-0.103,0.083-0.201,0.193-0.245,0.32c-0.013,0.047-0.026,0.094-0.038,0.141
				c-0.014,0.085-0.002,0.167,0.029,0.246l-0.017-0.062c0.007,0.024,0.012,0.048,0.018,0.072c0.001,0.001,0,0.002,0.001,0.004
				c0.001,0.002,0.001,0.005,0.002,0.007c0.002,0.008,0.005,0.015,0.007,0.022c0.001,0.004,0.003,0.008,0.004,0.012
				c-0.004,0.065-0.006,0.131,0.001,0.196c0.008,0.068,0.027,0.133,0.046,0.198c0.011,0.038,0.026,0.074,0.045,0.109
				c0.009,0.017,0.021,0.033,0.028,0.051c0.008,0.02,0.015,0.04,0.023,0.059c0.031,0.066,0.079,0.115,0.145,0.147
				c0.051,0.025,0.104,0.035,0.159,0.029c0.06,0.004,0.118-0.007,0.174-0.031c0.085-0.033,0.159-0.082,0.223-0.147
				c0.093-0.112,0.134-0.16,0.197-0.291c0.015-0.032,0.029-0.064,0.04-0.098c0.035-0.103,0.07-0.215,0.075-0.325
				C141.302,251.201,141.304,251.091,141.281,250.983z"/>
			<path style="opacity:0.43;fill:#B38113;" d="M134.902,264.671c-0.138-0.157-0.389-0.145-0.566-0.078
				c-0.238,0.09-0.394,0.276-0.503,0.498c-0.466,0.942-0.287,2.005-0.023,2.975c0.022,0.082,0.046,0.166,0.071,0.251
				c0.092,0.509,0.324,0.994,0.706,1.38c0.251,0.253,0.715,0.03,0.861-0.23C136.3,267.952,136.041,265.966,134.902,264.671z"/>
			<path style="opacity:0.43;fill:#B38113;" d="M144.238,239.155c-0.025-0.036-0.05-0.073-0.075-0.109
				c-0.008-0.008-0.018-0.012-0.027-0.019c-0.002-0.005-0.003-0.011-0.005-0.016c-0.021-0.031-0.042-0.061-0.063-0.092
				c-0.041-0.044-0.089-0.07-0.146-0.08c-0.037-0.016-0.075-0.021-0.115-0.015c-0.064-0.004-0.125,0.007-0.185,0.033
				c-0.055,0.018-0.105,0.048-0.154,0.078c-0.054,0.034-0.103,0.076-0.149,0.12c-0.008,0.008-0.016,0.016-0.024,0.024
				c-0.074,0.083-0.104,0.121-0.135,0.176c0.003-0.007,0.007-0.014,0.011-0.02c-0.011,0.021-0.017,0.03-0.024,0.044
				c-0.002,0.004-0.004,0.007-0.006,0.011c-0.023,0.042-0.035,0.064-0.043,0.084c-0.001,0.003-0.002,0.004-0.003,0.006
				c0.001-0.002,0.002-0.004,0.003-0.006c-0.006,0.017-0.012,0.037-0.024,0.081c-0.019,0.047-0.026,0.095-0.022,0.145
				c-0.006,0.025-0.006,0.049-0.001,0.073c0.005,0.023,0.013,0.049,0.019,0.07c0.004,0.015,0.012,0.053,0.022,0.076
				c0.002,0.004,0.004,0.008,0.006,0.011c0.025,0.037,0.05,0.073,0.075,0.109c0,0.001,0.001,0.001,0.001,0.002
				c0.001,0.001,0.001,0.001,0.002,0.002c0.001,0.002,0.003,0.003,0.004,0.005c0.002,0.001,0.003,0.003,0.005,0.004
				c0.001,0.001,0.001,0.001,0.002,0.002c0.014,0.011,0.095,0.068,0.11,0.078c0.004,0.002,0.008,0.005,0.012,0.007
				c0.002,0.001,0.004,0.002,0.007,0.002c0.001,0,0.001,0,0.002,0.001c0.043,0.012,0.086,0.025,0.13,0.037
				c0.001,0,0.002,0.001,0.003,0.001c0.006,0.001,0.012,0.002,0.017,0.002c0.075,0.011,0.147,0.004,0.217-0.021
				c0.08-0.015,0.153-0.046,0.221-0.094c0.076-0.047,0.141-0.106,0.192-0.178c0.058-0.061,0.103-0.133,0.132-0.213
				c0.013-0.049,0.027-0.099,0.04-0.148C144.286,239.334,144.275,239.243,144.238,239.155z"/>
			<path style="opacity:0.43;fill:#B38113;" d="M155.643,191.342c-0.1-0.285-0.478-0.299-0.711-0.214
				c-0.15,0.054-0.3,0.124-0.447,0.204c-0.063,0.008-0.125,0.022-0.183,0.039c-0.295,0.089-0.526,0.3-0.718,0.533
				c-0.208,0.252-0.348,0.567-0.473,0.868c-0.132,0.318-0.231,0.651-0.307,0.987c-0.083,0.364-0.133,0.761,0.12,1.072
				c0.238,0.294,0.631,0.292,0.962,0.191c0.652-0.199,1.084-0.839,1.397-1.405C155.674,192.909,155.921,192.136,155.643,191.342z"/>
			<path style="opacity:0.43;fill:#B38113;" d="M162.227,186.698l-0.06-0.087c-0.053-0.052-0.116-0.082-0.189-0.09h-0.118
				c-0.06-0.009-0.117-0.003-0.173,0.017c-0.063,0.012-0.122,0.037-0.175,0.075c-0.061,0.037-0.112,0.084-0.153,0.141
				c-0.047,0.049-0.082,0.106-0.105,0.17c-0.011,0.039-0.021,0.079-0.032,0.118c-0.012,0.075-0.004,0.147,0.026,0.217l0.06,0.087
				c0.053,0.051,0.116,0.081,0.189,0.09h0.118c0.059,0.009,0.117,0.003,0.173-0.016c0.063-0.012,0.122-0.037,0.176-0.075
				c0.061-0.037,0.112-0.084,0.153-0.141c0.047-0.049,0.082-0.105,0.105-0.17c0.011-0.039,0.021-0.079,0.032-0.118
				C162.265,186.841,162.257,186.768,162.227,186.698z"/>
			<path style="opacity:0.43;fill:#B38113;" d="M102.312,192.429c-0.561-1.427-1.274-2.922-2.742-3.601
				c-0.453-0.21-1.091,0.339-1.008,0.819c0.195,1.117,0.837,2.119,1.681,2.871c0.451,0.583,1.082,1.161,1.771,0.636
				C102.235,192.987,102.425,192.717,102.312,192.429z"/>
			<path style="opacity:0.43;fill:#B38113;" d="M92.427,174.65c-0.041-0.101-0.086-0.199-0.133-0.297
				c-0.022-0.047-0.045-0.094-0.067-0.14c-0.073-0.151-0.18-0.303-0.37-0.31c-0.069-0.01-0.137-0.004-0.202,0.019
				c-0.027,0.005-0.049,0.023-0.074,0.031c-0.051-0.021-0.107-0.033-0.16-0.024c-0.088,0.015-0.165,0.053-0.234,0.109
				c-0.069,0.056-0.136,0.131-0.165,0.217c-0.009,0.032-0.017,0.064-0.026,0.095c-0.01,0.061-0.003,0.12,0.021,0.176
				c0.022,0.073,0.045,0.152,0.079,0.221c0.016,0.032,0.038,0.062,0.058,0.091c0.038,0.056,0.076,0.113,0.117,0.167
				c0.09,0.121,0.196,0.226,0.301,0.334c0.041,0.044,0.09,0.071,0.147,0.081c0.056,0.022,0.115,0.026,0.176,0.014
				c0.042-0.011,0.084-0.022,0.126-0.033c0.069-0.024,0.129-0.061,0.182-0.11c0.091-0.074,0.178-0.172,0.218-0.285
				C92.462,174.888,92.475,174.769,92.427,174.65z"/>
			<path style="opacity:0.43;fill:#B38113;" d="M84.08,166.433c-0.315-0.449-0.757-0.806-1.26-1.025
				c-0.448-0.195-0.978,0.313-0.937,0.762c0.058,0.632,0.313,1.279,0.729,1.778c0.021,0.035,0.033,0.073,0.055,0.107
				c0.135,0.208,0.285,0.441,0.483,0.596c0.249,0.195,0.543,0.301,0.855,0.184c0.365-0.138,0.615-0.51,0.631-0.895
				C84.659,167.402,84.382,166.862,84.08,166.433z"/>
			<path style="opacity:0.43;fill:#B38113;" d="M113.826,203.954c-0.033-0.091-0.077-0.177-0.131-0.257
				c-0.051-0.076-0.097-0.154-0.168-0.213c-0.008-0.006-0.015-0.012-0.023-0.019c-0.022-0.017-0.045-0.033-0.068-0.049
				c-0.035-0.034-0.076-0.054-0.125-0.059c-0.027-0.008-0.054-0.016-0.081-0.023c-0.049,0-0.099,0.001-0.148,0.001
				c-0.059,0.005-0.116,0.028-0.174,0.044c-0.048,0.025-0.097,0.049-0.145,0.074c-0.076,0.046-0.139,0.105-0.191,0.176
				c-0.086,0.104-0.15,0.222-0.171,0.358c-0.016,0.1-0.014,0.212,0.031,0.305c0.023,0.048,0.059,0.098,0.094,0.139
				c0.013,0.016,0.027,0.031,0.04,0.047c-0.018,0.106,0.009,0.209,0.044,0.309c0.018,0.052,0.039,0.105,0.066,0.153
				c0.068,0.12,0.155,0.238,0.253,0.335c0.056,0.056,0.141,0.094,0.219,0.104c0.117,0.016,0.233-0.019,0.335-0.071
				c0.097-0.05,0.175-0.114,0.244-0.198c0.083-0.101,0.13-0.203,0.159-0.332c0.032-0.141,0.051-0.281,0.036-0.427
				C113.909,204.218,113.871,204.082,113.826,203.954z"/>
			<path style="opacity:0.43;fill:#B38113;" d="M112.881,198.31c-0.568,0-1.123,1.08-0.429,1.08
				C113.02,199.389,113.575,198.31,112.881,198.31z"/>
			<path style="opacity:0.43;fill:#B38113;" d="M118.603,236.026c-0.002-0.023-0.004-0.045-0.009-0.067
				c-0.007-0.027-0.014-0.053-0.022-0.08c-0.006-0.051-0.026-0.095-0.061-0.132c-0.021-0.046-0.055-0.08-0.101-0.102
				c-0.022-0.019-0.045-0.035-0.07-0.048c-0.167-0.091-0.379-0.036-0.535,0.044c-0.201,0.103-0.337,0.26-0.431,0.464
				c-0.036,0.079-0.051,0.171-0.053,0.257c-0.001,0.026,0.002,0.043,0.002,0.062c-0.003,0.009-0.01,0.016-0.013,0.025
				c-0.036,0.108-0.06,0.218-0.076,0.33c-0.01,0.07-0.01,0.142-0.011,0.213c-0.001,0.048,0.007,0.095,0.007,0.143
				c0.001-0.038,0.001-0.076,0.002-0.113c-0.003,0.083-0.005,0.166,0,0.249c0.006,0.111,0.094,0.242,0.198,0.285
				c0.118,0.049,0.263,0.051,0.38-0.003c0.124-0.058,0.245-0.12,0.339-0.223c0.065-0.071,0.128-0.148,0.184-0.227
				c0.026-0.037,0.049-0.076,0.071-0.115c0.036-0.066,0.075-0.131,0.099-0.202c0.016-0.047,0.028-0.096,0.041-0.144
				c0.031-0.113,0.055-0.223,0.059-0.34C118.607,236.21,118.611,236.117,118.603,236.026z"/>
			<path style="opacity:0.43;fill:#B38113;" d="M122.748,266.933c-0.012-0.148-0.034-0.295-0.067-0.439
				c-0.045-0.198-0.092-0.418-0.244-0.566c-0.307-0.301-0.782-0.234-1.119-0.022c-0.409,0.258-0.648,0.696-0.635,1.18
				c0.004,0.171,0.073,0.371,0.195,0.504c0.001,0.023-0.001,0.047,0,0.069c0.03,0.492,0.191,1.002,0.468,1.411
				c0.111,0.164,0.243,0.244,0.449,0.218c0.203-0.026,0.436-0.171,0.535-0.354c0.182-0.335,0.306-0.675,0.375-1.053
				C122.76,267.57,122.772,267.246,122.748,266.933z"/>
			<path style="opacity:0.43;fill:#B38113;" d="M117.064,270.244c-0.44,0-0.87,0.837-0.333,0.837
				C117.172,271.081,117.602,270.244,117.064,270.244z"/>
			<path style="opacity:0.43;fill:#B38113;" d="M132.144,273.137c-0.019-0.041-0.05-0.072-0.091-0.092
				c-0.051-0.045-0.112-0.069-0.182-0.074c-0.048-0.005-0.096-0.005-0.144,0.001c-0.049,0.013-0.098,0.026-0.147,0.039
				c-0.07,0.023-0.105,0.046-0.152,0.079c-0.007,0.005-0.014,0.01-0.021,0.014c-0.011,0.008-0.023,0.016-0.034,0.024
				c-0.003,0.001-0.005,0.003-0.008,0.004c-0.005,0.003-0.01,0.006-0.014,0.009c-0.011,0.007-0.019,0.016-0.029,0.024
				c-0.012,0.008-0.023,0.016-0.035,0.024c-0.047,0.038-0.094,0.076-0.141,0.114c-0.032,0.029-0.049,0.069-0.074,0.103
				c-0.012,0.016-0.031,0.025-0.042,0.041c-0.008,0.011-0.008,0.025-0.015,0.037c-0.007,0.013-0.019,0.021-0.025,0.034
				c-0.031,0.046-0.052,0.097-0.061,0.152c-0.005,0.012-0.001,0.025-0.004,0.038c-0.003,0.015-0.014,0.026-0.016,0.041
				c-0.008,0.049-0.009,0.097-0.003,0.144c0,0.001,0,0.001,0,0.002c0,0.001,0,0.001,0.001,0.001c0,0,0,0,0.001,0
				c0.006,0.046,0.017,0.09,0.036,0.134c0.04,0.087,0.103,0.15,0.189,0.191l0.001,0.001c0.045,0.013,0.09,0.025,0.134,0.038
				c0.078,0.011,0.152,0.004,0.225-0.022c0.055-0.009,0.106-0.028,0.153-0.059c0.082-0.036,0.155-0.087,0.217-0.153
				c0.022-0.026,0.045-0.051,0.067-0.077c0.011-0.013,0.022-0.025,0.033-0.037c0.006-0.007,0.011-0.013,0.017-0.02
				c0.021-0.024,0.041-0.049,0.061-0.074c0.058-0.061,0.102-0.131,0.132-0.211c0.025-0.048,0.038-0.098,0.04-0.149
				c0.001-0.047,0.002-0.094,0.003-0.141C132.212,273.249,132.188,273.188,132.144,273.137z"/>
			<path style="opacity:0.43;fill:#B38113;" d="M130.408,229.223c-0.014-0.03-0.045-0.043-0.066-0.066
				c-0.007-0.012-0.006-0.028-0.016-0.04c-0.025-0.046-0.062-0.08-0.112-0.1c-0.002-0.001-0.004-0.002-0.007-0.003
				c-0.033-0.013-0.07-0.025-0.106-0.03c-0.001,0-0.001,0-0.002,0c-0.003,0-0.109,0.001-0.112,0.001c-0.001,0-0.002,0-0.003,0
				c-0.041,0.005-0.082,0.017-0.121,0.032c0,0-0.001,0-0.001,0.001c-0.005,0.002-0.112,0.057-0.115,0.059
				c-0.001,0.001-0.002,0.001-0.003,0.002c-0.019,0.013-0.071,0.057-0.056,0.045c-0.004,0.003-0.04,0.029-0.057,0.046
				c-0.035,0.034-0.064,0.073-0.093,0.112c-0.002,0.002-0.003,0.005-0.005,0.007c-0.023,0.04-0.045,0.081-0.065,0.123
				c-0.001,0.003-0.002,0.006-0.004,0.009c0,0.001-0.001,0.003-0.001,0.004c-0.005,0.017-0.029,0.104-0.033,0.121
				c0,0.001-0.001,0.001-0.001,0.002c-0.001,0.003-0.001,0.006-0.002,0.009c-0.006,0.044-0.007,0.09-0.003,0.134
				c0,0.002,0.001,0.005,0.001,0.007c0.004,0.018,0.02,0.073,0.015,0.055c-0.007-0.025,0.009,0.038,0.015,0.055
				c0,0.001,0.001,0.003,0.002,0.004c0.001,0.001,0.001,0.002,0.002,0.003c0,0.001,0.001,0.001,0.001,0.001
				c0.004,0.007,0.059,0.087,0.064,0.094c0.001,0.002,0.003,0.003,0.005,0.005c0,0,0,0,0,0c0.015,0.011,0.031,0.022,0.047,0.033
				c-0.041-0.029,0.032,0.025,0.047,0.033c0.001,0.001,0.002,0.001,0.003,0.002c0.001,0,0.001,0.001,0.002,0.001
				c0.01,0.004,0.101,0.029,0.112,0.032c0.002,0,0.003,0.001,0.005,0.001c0.086,0.009,0.169-0.002,0.25-0.034
				c0.092-0.036,0.172-0.089,0.242-0.159c0.07-0.069,0.124-0.149,0.161-0.24c0.028-0.06,0.039-0.123,0.036-0.188
				C130.444,229.336,130.434,229.279,130.408,229.223z"/>
		</g>
		<g>
			
				<radialGradient id="SVGID_00000160895145655157671650000016327632938675985593_" cx="112.9017" cy="-5.7769" r="242.8465" gradientUnits="userSpaceOnUse">
				<stop  offset="0" style="stop-color:#D2DE28"/>
				<stop  offset="0.4988" style="stop-color:#C6D42D"/>
				<stop  offset="1" style="stop-color:#4E8C3B"/>
			</radialGradient>
			<path style="fill:url(#SVGID_00000160895145655157671650000016327632938675985593_);" d="M223.308,80.923
				c-3.739-2.418-7.848-4.088-12.116-5.065c-0.115-3.615-0.938-7.216-2.48-10.599c-3.376-7.407-9.792-13.432-17.322-16.485
				c-6.867-2.784-14.506-2.987-21.649-1.222c-2.267-4.226-5.424-8.061-8.837-11.318c-8.464-8.077-19.708-13.202-31.368-14.236
				c-11.573-1.026-23.124,2.26-32.613,8.922c-2.774,1.948-5.367,4.174-7.732,6.622c-2.368-0.653-4.825-1.024-7.294-1.17
				c-5.852-0.347-11.841,0.301-17.551,1.593c-5.499,1.244-10.866,3.194-15.67,6.18c-9.001,5.595-14.928,14.778-16.642,25.208
				c-0.925,5.627-0.58,11.309,0.944,16.67c-5.274,2.068-10.125,5.292-14.034,9.388c-8.701,9.116-12.485,22.52-10.253,34.878
				c2.133,11.809,9.825,22.184,20.168,28.156c5.889,3.4,12.554,5.113,19.301,5.664c6.916,0.565,13.953,0.11,20.779-1.094
				c3.621-0.639,7.218-1.51,10.758-2.59c6.536,2.254,13.314,3.855,20.139,4.806c10.606,1.479,21.421,1.428,32.033,0.036
				c10.559-1.385,20.973-4.07,30.906-7.906c2.389-0.923,4.781-1.93,7.136-3.038c4.914,1.282,10.024,1.791,15.107,1.727
				c13.498-0.171,27.563-3.997,38.337-12.355c10.13-7.858,17.265-20.074,17.076-33.119
				C240.259,98.572,233.269,87.365,223.308,80.923z"/>
			<path style="fill:#6D8E41;" d="M115.812,166.66c-5.413,0-10.766-0.366-16.022-1.099c-6.893-0.961-13.654-2.571-20.099-4.786
				c-3.547,1.078-7.145,1.941-10.694,2.568c-7.202,1.271-14.22,1.642-20.864,1.098c-7.385-0.603-13.925-2.523-19.44-5.707
				c-10.628-6.135-18.227-16.747-20.33-28.385c-2.28-12.621,1.681-26.097,10.34-35.167c3.842-4.025,8.634-7.256,13.874-9.357
				c-1.493-5.406-1.787-10.963-0.872-16.525c1.745-10.616,7.866-19.888,16.795-25.437C52.953,41.094,58.26,39,64.272,37.64
				c6.152-1.392,12.088-1.932,17.644-1.601c2.533,0.15,4.945,0.53,7.172,1.13c2.357-2.422,4.928-4.615,7.643-6.522
				c9.698-6.809,21.36-10.002,32.834-8.982c11.769,1.044,22.98,6.132,31.568,14.327c3.713,3.542,6.665,7.3,8.778,11.174
				c7.56-1.818,15.025-1.37,21.604,1.298c7.726,3.132,14.104,9.203,17.501,16.655c1.512,3.318,2.352,6.84,2.5,10.471
				c4.343,1.022,8.37,2.721,11.973,5.051l0,0c10.487,6.783,17.107,18.25,17.276,29.928c0.18,12.409-6.252,24.889-17.205,33.387
				c-10.087,7.825-23.773,12.237-38.537,12.425c-5.354,0.062-10.431-0.507-15.079-1.707c-2.197,1.031-4.567,2.038-7.048,2.997
				c-10.048,3.88-20.472,6.546-30.983,7.925C126.513,166.306,121.133,166.66,115.812,166.66z M79.698,160.092
				c0.036,0,0.074,0.006,0.109,0.018c6.435,2.219,13.19,3.831,20.076,4.791c10.361,1.445,21.11,1.458,31.943,0.036
				c10.459-1.371,20.831-4.025,30.83-7.886c2.507-0.968,4.9-1.987,7.114-3.028c0.07-0.034,0.15-0.043,0.226-0.021
				c4.622,1.205,9.662,1.776,15.02,1.716c14.619-0.185,28.162-4.548,38.136-12.286c10.788-8.37,17.124-20.65,16.948-32.851
				c-0.166-11.456-6.67-22.714-16.972-29.377l0,0c-3.607-2.332-7.647-4.021-12.01-5.019c-0.148-0.034-0.254-0.163-0.259-0.314
				c-0.115-3.633-0.939-7.157-2.45-10.473c-3.326-7.299-9.575-13.245-17.144-16.314c-6.522-2.643-13.936-3.062-21.444-1.207
				c-0.147,0.034-0.301-0.032-0.373-0.166c-2.089-3.893-5.04-7.672-8.773-11.235c-8.48-8.091-19.549-13.115-31.167-14.145
				c-11.315-1.003-22.823,2.145-32.393,8.863c-2.734,1.919-5.319,4.134-7.684,6.581c-0.085,0.087-0.21,0.121-0.328,0.09
				c-2.235-0.617-4.666-1.007-7.225-1.159c-5.493-0.327-11.367,0.207-17.458,1.585c-5.94,1.344-11.177,3.41-15.567,6.138
				c-8.765,5.448-14.775,14.552-16.489,24.979c-0.915,5.564-0.6,11.123,0.936,16.525c0.047,0.165-0.039,0.338-0.198,0.401
				c-5.26,2.062-10.072,5.281-13.916,9.308c-8.513,8.919-12.409,22.173-10.165,34.589c2.068,11.447,9.547,21.887,20.007,27.927
				c5.428,3.134,11.875,5.025,19.161,5.62c6.585,0.538,13.549,0.17,20.694-1.09c3.558-0.628,7.164-1.497,10.72-2.581
				C79.632,160.096,79.665,160.092,79.698,160.092z"/>
		</g>
		
			<radialGradient id="SVGID_00000072992253661829588300000009283201082626112179_" cx="82.9697" cy="37.1621" r="165.5474" gradientUnits="userSpaceOnUse">
			<stop  offset="0" style="stop-color:#D2DE28"/>
			<stop  offset="0.4988" style="stop-color:#C6D42D"/>
			<stop  offset="1" style="stop-color:#4E8C3B"/>
		</radialGradient>
		<path style="opacity:0.6;fill:url(#SVGID_00000072992253661829588300000009283201082626112179_);" d="M223.308,80.923
			c-3.739-2.418-7.848-4.088-12.116-5.065c-0.115-3.615-0.938-7.216-2.48-10.599c-3.376-7.407-9.792-13.432-17.322-16.485
			c-6.867-2.785-14.506-2.987-21.649-1.222c-2.267-4.226-5.424-8.061-8.837-11.318c-8.464-8.077-19.708-13.202-31.368-14.236
			c-11.573-1.026-23.124,2.26-32.613,8.922c-2.774,1.948-5.367,4.174-7.732,6.622c-2.368-0.653-4.825-1.024-7.294-1.17
			c-5.852-0.347-11.841,0.301-17.551,1.593c-5.499,1.244-10.866,3.194-15.67,6.18c-9.001,5.595-14.928,14.778-16.642,25.208
			c-0.925,5.627-0.58,11.31,0.944,16.67c-5.274,2.068-10.125,5.292-14.034,9.388c-8.701,9.116-12.486,22.52-10.253,34.878
			c2.133,11.809,9.825,22.184,20.168,28.156c5.889,3.4,12.554,5.113,19.301,5.664c6.916,0.565,13.953,0.111,20.779-1.094
			c3.621-0.639,7.218-1.51,10.758-2.59c6.536,2.254,13.314,3.855,20.139,4.806c10.606,1.479,21.421,1.428,32.033,0.036
			c10.559-1.385,20.973-4.07,30.906-7.906c2.389-0.922,4.781-1.93,7.136-3.038c4.914,1.282,10.024,1.791,15.107,1.727
			c13.498-0.171,27.563-3.997,38.337-12.355c10.13-7.858,17.265-20.074,17.076-33.119C240.259,98.572,233.269,87.365,223.308,80.923
			z M168.439,96.652c-0.582,2.275-1.377,4.534-2.479,6.612c-0.868,1.638-1.923,3.171-3.086,4.611
			c-2.563,3.176-5.676,5.902-9.037,8.205c-3.503,2.401-7.33,4.359-11.354,5.723c-3.794,1.286-7.83,2.055-11.847,1.882
			c-3.724-0.161-7.431-1.18-10.525-3.305c-1.354-0.929-2.539-2.038-3.577-3.27c-0.637,1.304-1.345,2.573-2.154,3.784
			c-2.633,3.945-5.91,7.454-9.54,10.496c-3.698,3.099-7.79,5.751-12.171,7.779c-3.507,1.623-7.188,2.768-10.965,3.566
			c-3.548,0.75-7.167,1.206-10.793,1.316c-3.672,0.111-7.373-0.137-10.97-0.905c-3.446-0.735-6.821-1.972-9.794-3.883
			c-0.304-0.196-0.6-0.403-0.894-0.612c-1.087-0.701-2.121-1.486-3.078-2.372c0.35,0.601,0.714,1.194,1.104,1.771
			c2.987,4.431,7.236,7.847,12.587,8.802c0.337,0.06,0.297,0.558,0,0.642c-1.036,0.294-2.083,0.548-3.14,0.756
			c-8.018,1.577-16.501,0.552-23.83-3.098c-6.909-3.44-12.601-9.226-15.435-16.452c-1.484-3.785-2.132-7.873-1.992-11.932
			c0.127-3.663,0.75-7.446,2.294-10.792c1.525-3.303,3.657-6.428,6.24-8.993c2.278-2.263,5.364-4.49,8.746-4.234
			c1.465,0.111,3.263,0.709,4.199,1.905c1.099,1.405,1.351,3.406,1.619,5.113c0.128,0.813,0.225,1.64,0.426,2.44
			c0.273,1.088,0.944,2.166,1.48,3.147c1.128,2.065,2.529,4.024,4.456,5.395c-0.419-2.989-0.836-5.979-1.137-8.982
			c-0.514-5.143-0.65-10.366,0.415-15.452c1.082-5.17,3.428-9.919,6.459-14.21c-5.156,2.489-8.675,7.632-11.288,12.55
			c-0.136,0.257-0.535,0.188-0.609-0.08c-0.195-0.711-0.369-1.427-0.518-2.148c-1.12-5.431-0.803-11.09,0.955-16.351
			c1.711-5.121,4.688-9.763,8.438-13.631c3.823-3.943,8.449-7.11,13.478-9.308c5.054-2.209,10.535-3.464,16.058-3.499
			c4.961-0.031,9.888,0.955,14.426,2.933c0.331-0.601,0.694-1.18,1.07-1.727c1.754-2.552,3.971-4.813,6.383-6.748
			c2.592-2.08,5.586-3.633,8.677-4.831c3.542-1.373,7.271-2.249,11.043-2.67c3.687-0.411,7.43-0.372,11.098,0.204
			c3.474,0.545,6.869,1.627,10.063,3.091c5.971,2.737,11.181,7.002,15.008,12.344c3.887,5.426,6.22,11.824,7.024,18.433
			c0.034,0.279-0.301,0.376-0.501,0.288c-3.019-1.34-6.077-2.542-9.227-3.397c0.262,0.161,0.529,0.315,0.786,0.484
			c4.092,2.676,7.607,6.199,10.322,10.262c2.716,4.065,4.628,8.681,5.533,13.488C169.81,86.709,169.679,91.803,168.439,96.652z"/>
		
			<radialGradient id="SVGID_00000137092856036275357360000008604437121297737138_" cx="82.9696" cy="37.1621" r="165.5475" gradientUnits="userSpaceOnUse">
			<stop  offset="0" style="stop-color:#D2DE28"/>
			<stop  offset="0.4988" style="stop-color:#C6D42D"/>
			<stop  offset="1" style="stop-color:#4E8C3B"/>
		</radialGradient>
		<path style="opacity:0.6;fill:url(#SVGID_00000137092856036275357360000008604437121297737138_);" d="M223.308,80.923
			c-3.739-2.418-7.848-4.088-12.116-5.065c-0.115-3.615-0.938-7.216-2.48-10.599c-3.376-7.407-9.792-13.432-17.322-16.485
			c-4.159-1.686-8.601-2.42-13.045-2.349c4.877,2.375,9.337,5.939,12.486,10.334c1.612,2.249,2.893,4.805,3.41,7.54
			c0.507,2.683,0.209,5.401-0.893,7.9c-0.084,0.191-0.393,0.216-0.523,0.067c-1.058-1.208-2.243-2.303-3.538-3.253
			c-4.301-3.151-9.823-4.85-15.096-3.731c3.358,1.298,6.617,2.868,9.662,4.793c5.557,3.512,11.039,8.435,13.012,14.908
			c0.821,2.694,1.002,5.517,1.111,8.314c0.114,2.933,0.221,5.861,0.734,8.755c1.089-0.725,1.867-1.846,2.456-3
			c1.499-2.938,2.032-6.424,1.975-9.695c-0.048-2.741-0.474-6.151-2.559-8.159c-0.235-0.227,0.006-0.658,0.324-0.557
			c1.081,0.345,2.169,0.667,3.259,0.983c4.295,1.247,8.599,2.51,12.418,4.91c3.467,2.179,6.385,5.374,8.644,8.764
			c4.513,6.775,6.494,15.238,4.689,23.246c-1.696,7.524-6.592,13.99-12.536,18.741c-5.755,4.6-12.78,8.046-20.104,9.135
			c-3.607,0.536-7.307,0.691-10.935,0.272c-3.352-0.387-6.837-1.262-9.501-3.437c-0.145-0.119-0.111-0.347,0-0.471
			c1.374-1.532,2.644-3.152,3.778-4.87c1.965-2.978,3.477-6.206,4.463-9.584c-0.188,0.337-0.381,0.669-0.577,0.993
			c-1.688,2.786-3.775,5.329-5.97,7.728c-1.844,2.015-3.766,4.016-5.834,5.804c-3.117,2.696-6.561,5.004-10.189,6.953
			c-7.074,3.8-14.757,6.187-22.657,7.511c-6.006,1.007-12.168,1.54-18.255,1.135c-3.142-0.209-6.308-0.672-9.3-1.68
			c-2.667-0.898-5.234-2.26-7.156-4.352c-0.154-0.167-0.115-0.513,0.147-0.557c2.536-0.428,5.034-1.121,7.38-2.183
			c3.724-1.686,6.919-4.247,9.652-7.264c1.171-1.293,2.259-2.655,3.301-4.053c-2.603,1.988-5.169,4.029-8.051,5.61
			c-8.389,4.601-17.855,6.985-27.374,7.52c-4.158,0.234-8.382,0.206-12.472-0.662c-3.617-0.768-7.016-2.272-9.88-4.591
			c0.529,1.33,1.114,2.639,1.855,3.867c0.978,1.619,2.229,3.018,3.709,4.193c0.192,0.153,0.084,0.511-0.147,0.557
			c-1.138,0.223-2.278,0.439-3.42,0.642c-8.747,1.553-17.776,2.36-26.518,0.327c-7.921-1.843-15.524-5.936-21.269-11.721
			c-4.595-4.627-7.881-10.44-9.369-16.795c-1.489-6.36-1.198-13.036,0.398-19.346c0.884-3.496,2.159-6.879,3.746-10.112
			c-7.178,8.971-10.181,21.134-8.14,32.435c2.133,11.809,9.825,22.184,20.168,28.156c5.889,3.4,12.554,5.113,19.301,5.664
			c6.916,0.565,13.953,0.111,20.779-1.094c3.621-0.639,7.218-1.51,10.758-2.59c6.536,2.254,13.314,3.855,20.139,4.806
			c10.606,1.479,21.421,1.428,32.033,0.036c10.559-1.385,20.973-4.07,30.906-7.906c2.389-0.922,4.781-1.93,7.136-3.038
			c4.914,1.282,10.024,1.791,15.107,1.727c13.498-0.171,27.563-3.997,38.337-12.355c10.13-7.858,17.265-20.074,17.076-33.119
			C240.259,98.572,233.269,87.365,223.308,80.923z"/>
		<path style="fill:#AAB52F;" d="M70.834,106.236c5.128,2.445,10.842,3.182,16.427,2.129c5.455-1.029,10.596-3.621,14.708-7.345
			c4.453-4.033,7.411-9.46,9.484-15.044c2.181-5.876,3.309-12.365,2.085-18.583c-1.143-5.807-4.529-10.977-9.328-14.432
			c-4.849-3.491-10.962-5.296-16.904-5.424c-3.159-0.068-6.302,0.33-9.36,1.088c-0.828,0.286-1.648,0.589-2.452,0.931
			c-8.895,3.778-16.266,10.979-19.26,20.276c-1.372,4.261-1.861,8.788-1.371,13.238c0.261,3.983,1.25,7.884,2.934,11.504
			c0.303,0.472,0.611,0.942,0.936,1.4C61.84,100.345,65.986,103.925,70.834,106.236z"/>
		<path style="fill:#AAB52F;" d="M140.736,73.847c-4.149-1.824-9.188-1.381-13.037,1.019c-5.838,3.64-8.363,11.426-7.255,18.024
			c1.164,6.932,7.187,11.609,14.242,10.201c3.647-0.728,6.866-2.891,9.215-5.739c2.339-2.837,3.794-6.507,4.223-10.145
			c0.661-5.6-1.863-10.813-7.179-13.266C140.876,73.909,140.806,73.877,140.736,73.847z"/>
		<path style="fill:#AAB52F;" d="M34.523,104.185c-2.829-2.126-6.679-3.285-9.747-0.962c-2.93,2.218-3.816,5.931-3.97,9.44
			c-1.569,6.201-0.142,13.276,5.246,17.22c2.619,1.917,5.889,2.791,8.673,0.702c2.621-1.967,4.064-5.323,4.91-8.391
			C41.393,115.808,40.057,108.343,34.523,104.185z"/>
		<path style="fill:#AAB52F;" d="M174.604,123.443c-0.586-3.54-3.372-5.912-6.808-6.569c-4.305-0.822-8.45,1.274-11.712,3.91
			c-0.194,0.157-0.385,0.326-0.578,0.487c-1.27,0.626-2.488,1.371-3.645,2.183c-3.24,2.272-6.481,5.108-8.426,8.606
			c-1.787,3.215-2.18,7.05-0.068,10.216c1.869,2.802,5.143,4.613,8.48,4.902c8.227,0.714,15.653-5.935,19.627-12.52
			C173.449,131.384,175.252,127.36,174.604,123.443z"/>
		<path style="fill:#AAB52F;" d="M182.043,101.839c-0.864-2.365-3.801-3.274-6.07-2.671c-2.878,0.765-4.852,3.809-4.983,6.711
			c-0.041,0.136-0.083,0.272-0.113,0.414c-0.277,1.311,0.069,2.721,1.035,3.672c1.947,1.914,5.032,1.781,7.106,0.168
			c1.171-0.911,2.047-2.155,2.613-3.52C182.242,105.14,182.605,103.379,182.043,101.839z"/>
		<path style="fill:#AAB52F;" d="M218.198,106.297c-0.749-1.738-2.212-3-4.093-3.334c-1.994-0.354-4.078,0.259-5.886,1.068
			c-3.092,1.383-6.181,3.56-8.264,6.345c-0.29,0.241-0.579,0.485-0.862,0.734c-2.594,2.282-4.855,5.024-6.44,8.102
			c-1.549,3.01-2.726,6.676-2.02,10.081c0.685,3.302,3.3,5.464,6.641,5.683c3.341,0.219,6.591-1.053,9.389-2.78
			c2.894-1.786,5.402-4.176,7.393-6.928c1.987-2.747,3.434-5.874,4.242-9.165C219.057,113.015,219.493,109.304,218.198,106.297z"/>
	</g>
	<g>
		<g>
			<g>
				<path style="fill:#5B4D49;" d="M384.754,113.503h-56.031c-2.526,0-4.592-2.066-4.592-4.592V15.052
					c0-2.526,2.066-4.592,4.592-4.592h56.031c2.526,0,4.592,2.066,4.592,4.592v93.859
					C389.346,111.437,387.28,113.503,384.754,113.503z"/>
				<path style="fill:#5E4043;" d="M384.892,113.988h-56.306c-2.723,0-4.939-2.216-4.939-4.939V14.914
					c0-2.723,2.216-4.939,4.939-4.939h56.306c2.724,0,4.939,2.216,4.939,4.939v94.134
					C389.831,111.772,387.616,113.988,384.892,113.988z M328.585,10.945c-2.189,0-3.969,1.781-3.969,3.969v94.134
					c0,2.188,1.78,3.969,3.969,3.969h56.306c2.189,0,3.97-1.781,3.97-3.969V14.914c0-2.188-1.781-3.969-3.97-3.969H328.585z"/>
			</g>
			<path style="fill:#C6A482;" d="M389.346,28.174V15.972c0-3.031-2.48-5.512-5.512-5.512h-54.191c-3.031,0-5.512,2.48-5.512,5.512
				v12.202H389.346z"/>
			<path style="fill:#C6A482;" d="M324.131,44.661v63.33c0,3.032,2.48,5.512,5.512,5.512h54.191c3.031,0,5.512-2.48,5.512-5.512
				V88.296L324.131,44.661z"/>
			<g>
				<path style="fill:#EA8F67;" d="M391.784,24.114h-70.092c-1.631,0-2.966-1.334-2.966-2.965V8.409
					c0-1.631,1.335-2.965,2.966-2.965h70.092c1.631,0,2.966,1.334,2.966,2.966v12.739C394.75,22.779,393.415,24.114,391.784,24.114z
					"/>
				<path style="fill:#974F10;" d="M391.874,24.599h-70.27c-1.853,0-3.361-1.508-3.361-3.362V8.321c0-1.854,1.508-3.362,3.361-3.362
					h70.27c1.853,0,3.361,1.508,3.361,3.362v12.917C395.235,23.091,393.727,24.599,391.874,24.599z M321.604,5.929
					c-1.319,0-2.391,1.073-2.391,2.392v12.917c0,1.319,1.073,2.392,2.391,2.392h70.27c1.319,0,2.391-1.073,2.391-2.392V8.321
					c0-1.319-1.073-2.392-2.391-2.392H321.604z"/>
			</g>
			<g>
				<path style="fill:#EA8F67;" d="M391.784,24.114h-70.092c-1.631,0-2.966-1.334-2.966-2.965V8.409
					c0-1.631,1.335-2.965,2.966-2.965h70.092c1.631,0,2.966,1.334,2.966,2.966v12.739C394.75,22.779,393.415,24.114,391.784,24.114z
					"/>
				<path style="fill:#974F10;" d="M391.874,24.599h-70.27c-1.853,0-3.361-1.508-3.361-3.362V8.321c0-1.854,1.508-3.362,3.361-3.362
					h70.27c1.853,0,3.361,1.508,3.361,3.362v12.917C395.235,23.091,393.727,24.599,391.874,24.599z M321.604,5.929
					c-1.319,0-2.391,1.073-2.391,2.392v12.917c0,1.319,1.073,2.392,2.391,2.392h70.27c1.319,0,2.391-1.073,2.391-2.392V8.321
					c0-1.319-1.073-2.392-2.391-2.392H321.604z"/>
			</g>
			<path style="fill:#EA8F67;" d="M352.33,15.123h-27.711c-1.631,0-2.966-1.335-2.966-2.966v-1.188c0-1.631,1.334-2.966,2.966-2.966
				h27.711c1.631,0,2.965,1.335,2.965,2.966v1.188C355.295,13.789,353.961,15.123,352.33,15.123z"/>
			<path style="fill:#EA8F67;" d="M368.4,15.123h-6.924c-1.631,0-2.966-1.335-2.966-2.966v-1.188c0-1.631,1.335-2.966,2.966-2.966
				h6.925c1.631,0,2.966,1.335,2.966,2.966v1.188C371.366,13.789,370.031,15.123,368.4,15.123z"/>
			<g>
				<path style="fill:#FDC68D;" d="M340.302,39.506h-8.925c-1.135,0-2.064-0.929-2.064-2.064v-0.827
					c0-1.135,0.929-2.064,2.064-2.064h8.925c1.135,0,2.064,0.929,2.064,2.064v0.827C342.367,38.577,341.438,39.506,340.302,39.506z"
					/>
				<path style="fill:#FDC68D;" d="M354.746,39.506h-8.925c-1.135,0-2.064-0.929-2.064-2.064v-0.827
					c0-1.135,0.929-2.064,2.064-2.064h8.925c1.135,0,2.064,0.929,2.064,2.064v0.827C356.81,38.577,355.881,39.506,354.746,39.506z"
					/>
				<path style="fill:#FDC68D;" d="M348.401,45.429h-8.925c-1.135,0-2.064-0.929-2.064-2.064v-0.827
					c0-1.135,0.929-2.064,2.064-2.064h8.925c1.135,0,2.064,0.929,2.064,2.064v0.827C350.465,44.5,349.536,45.429,348.401,45.429z"/>
			</g>
			<g>
				<path style="fill:#FDC68D;" d="M375.889,60.971h-8.925c-1.135,0-2.064-0.929-2.064-2.064V58.08c0-1.135,0.929-2.064,2.064-2.064
					h8.925c1.135,0,2.064,0.929,2.064,2.064v0.827C377.953,60.042,377.024,60.971,375.889,60.971z"/>
				<path style="fill:#FDC68D;" d="M383.987,66.894h-8.925c-1.135,0-2.064-0.929-2.064-2.064v-0.827
					c0-1.135,0.929-2.064,2.064-2.064h8.925c1.135,0,2.064,0.929,2.064,2.064v0.827C386.051,65.965,385.122,66.894,383.987,66.894z"
					/>
			</g>
		</g>
		<g>
			<g>
				
					<linearGradient id="SVGID_00000060003248681849872310000016706498104078985404_" gradientUnits="userSpaceOnUse" x1="272.677" y1="-4.2701" x2="272.677" y2="348.0089">
					<stop  offset="3.966000e-05" style="stop-color:#EFF7F1"/>
					<stop  offset="1" style="stop-color:#F1CAA3"/>
				</linearGradient>
				<polygon style="fill:url(#SVGID_00000060003248681849872310000016706498104078985404_);" points="352.32,94.226 273.524,39.507 
					272.677,40.082 271.83,39.507 193.031,94.228 144.736,127.06 144.736,288.609 226.076,288.609 319.278,288.609 400.618,288.609 
					400.618,127.06 				"/>
				<path style="fill:#DB8429;" d="M401.103,289.095H144.252V126.803l0.212-0.144l48.294-32.831l79.069-54.909l0.85,0.578
					l0.85-0.578l0.274,0.189l78.795,54.72l48.507,32.975V289.095z M145.222,288.125h254.911V127.316l-48.089-32.691l-78.522-54.53
					l-0.844,0.574l-0.844-0.574l-78.525,54.532l-48.086,32.689V288.125z"/>
			</g>
			<rect x="144.736" y="245.433" style="fill:#FDC68D;" width="255.881" height="43.177"/>
			<g>
				<polygon style="fill:#FDC68D;" points="273.9,52.71 357.392,110.424 400.618,139.81 400.618,127.06 352.32,94.226 
					273.524,39.507 272.677,40.082 271.83,39.507 193.031,94.228 144.736,127.06 144.736,141.059 189.795,110.426 				"/>
			</g>
			<g>
				<path style="fill:#EF3745;" d="M408.445,107.78c0,0-122.152-82.834-129.6-87.485c-2.121-1.325-4.17-1.787-6.169-1.672
					c-1.999-0.115-4.048,0.347-6.169,1.672c-7.448,4.651-129.6,87.485-129.6,87.485s-7.165,2.288-4.895,15.873
					c1.277,7.64,1.915,14.691,8.725,13.141c5.525-1.258,130.815-90.721,131.938-91.527c1.123,0.806,126.412,90.269,131.938,91.527
					c6.81,1.55,7.448-5.501,8.725-13.141C415.61,110.069,408.445,107.78,408.445,107.78z"/>
				<path style="fill:#C84536;" d="M406.391,137.497c-0.584,0-1.211-0.077-1.884-0.23c-5.552-1.264-125.13-86.615-131.83-91.404
					c-6.7,4.788-126.278,90.14-131.83,91.404c-1.951,0.447-3.518,0.247-4.785-0.608c-2.723-1.835-3.443-6.269-4.277-11.404
					l-0.25-1.522c-2.218-13.271,4.339-16.093,5.154-16.39c3.111-2.11,122.251-82.893,129.562-87.458
					c2.087-1.304,4.19-1.879,6.453-1.745c2.196-0.135,4.31,0.44,6.398,1.745c7.311,4.565,126.451,85.349,129.562,87.458
					c0.814,0.296,7.371,3.117,5.154,16.39l-0.25,1.522c-0.834,5.135-1.554,9.569-4.276,11.404
					C408.462,137.219,407.503,137.497,406.391,137.497z M272.677,44.671l0.283,0.203c1.254,0.9,126.345,90.215,131.762,91.448
					c1.678,0.38,2.996,0.229,4.028-0.467c2.375-1.6,3.097-6.047,3.862-10.755l0.25-1.526c2.164-12.957-4.29-15.241-4.566-15.332
					l-0.123-0.06c-1.222-0.829-122.229-82.882-129.584-87.475c-1.912-1.194-3.838-1.715-5.884-1.599
					c-2.106-0.115-4.028,0.405-5.939,1.599c-7.356,4.593-128.363,86.646-129.584,87.475l-0.125,0.061
					c-0.274,0.09-6.729,2.374-4.563,15.331l0.25,1.526c0.765,4.708,1.487,9.155,3.861,10.755c1.033,0.696,2.349,0.847,4.028,0.467
					c5.417-1.233,130.509-90.548,131.762-91.448L272.677,44.671z"/>
			</g>
			<g>
				<path style="fill:#F15642;" d="M136.909,112.581c0,0,122.151-82.833,129.599-87.484c2.121-1.325,4.169-1.787,6.169-1.672
					c1.999-0.115,4.047,0.347,6.168,1.672c7.448,4.651,129.6,87.484,129.6,87.484s4.433,1.447,5.208,8.697
					c1.102-11.48-5.208-13.498-5.208-13.498s-122.151-82.834-129.6-87.485c-2.121-1.325-4.169-1.787-6.168-1.672
					c-1.999-0.115-4.048,0.347-6.169,1.672c-7.448,4.651-129.599,87.485-129.599,87.485s-6.31,2.018-5.208,13.498
					C132.476,114.029,136.909,112.581,136.909,112.581z"/>
			</g>
			<g>
				<path style="fill:#D29E8C;" d="M410.157,108.832c-0.069,0.9-0.168,1.841-0.34,2.869c-1.245,7.449-1.867,14.324-8.507,12.812
					c-5.387-1.226-127.538-88.449-128.633-89.235c-1.095,0.786-123.246,88.008-128.633,89.235
					c-6.639,1.511-7.262-5.363-8.507-12.812c-0.172-1.029-0.272-1.969-0.34-2.869c-1.96,1.65-4.713,5.664-3.183,14.821
					c1.277,7.64,1.915,14.692,8.725,13.141c5.525-1.258,130.815-90.721,131.938-91.527c1.123,0.806,126.412,90.269,131.937,91.527
					c6.81,1.55,7.448-5.501,8.725-13.141C414.87,114.496,412.116,110.483,410.157,108.832z"/>
			</g>
			<g>
				<g>
					<path style="fill:#128BB2;" d="M215.775,228.392v-62.558c0.282-6.496-5.649-8.473-5.649-8.473
						c-11.345-3.743-23.728-3.743-35.071,0c0,0-5.931,1.977-5.648,8.473v62.558c0,0-0.565,3.531,4.236,3.531h5.699h26.498h5.699
						C216.34,231.923,215.775,228.392,215.775,228.392z"/>
				</g>
				<g>
					<path style="fill:#128BB2;" d="M215.775,228.392v-62.558c0.282-6.496-5.649-8.473-5.649-8.473
						c-11.345-3.743-23.728-3.743-35.071,0c0,0-5.931,1.977-5.648,8.473v62.558c0,0-0.565,3.531,4.236,3.531h5.699h26.498h5.699
						C216.34,231.923,215.775,228.392,215.775,228.392z"/>
				</g>
				<path style="fill:#59B5DC;" d="M209.15,221.473v-49.84c0.19-5.175-3.796-6.751-3.796-6.751c-7.624-2.982-15.945-2.982-23.568,0
					c0,0-3.986,1.575-3.796,6.751v49.84c0,0-0.38,2.813,2.847,2.813h3.829h17.807h3.829
					C209.529,224.286,209.15,221.473,209.15,221.473z"/>
				<g>
					<polygon style="fill:#EC9F6C;" points="213.67,174.598 213.67,170.693 194.391,170.693 194.391,156.169 190.79,156.169 
						190.79,170.693 172.574,170.693 172.574,174.598 190.79,174.598 190.79,189.227 172.574,189.227 172.574,193.133 
						190.79,193.133 190.79,207.761 172.574,207.761 172.574,211.667 190.79,211.667 190.79,230.307 194.391,230.307 
						194.391,211.667 213.67,211.667 213.67,207.761 194.391,207.761 194.391,193.133 213.67,193.133 213.67,189.227 
						194.391,189.227 194.391,174.598 					"/>
					<path style="fill:#B9634D;" d="M194.876,230.792h-4.571v-18.64h-18.217v-4.876h18.217v-13.659h-18.217v-4.876h18.217v-13.66
						h-18.217v-4.876h18.217v-14.523h4.571v14.523h19.279v4.876h-19.279v13.66h19.279v4.876h-19.279v13.659h19.279v4.876h-19.279
						V230.792z M191.275,229.822h2.631v-18.64h19.279v-2.936h-19.279v-15.599h19.279v-2.936h-19.279v-15.6h19.279v-2.936h-19.279
						v-14.523h-2.631v14.523h-18.217v2.936h18.217v15.6h-18.217v2.936h18.217v15.599h-18.217v2.936h18.217V229.822z"/>
				</g>
				<g>
					<path style="fill:#EC9F6C;" d="M215.775,228.392v-62.558c0.282-6.496-5.649-8.473-5.649-8.473
						c-11.345-3.743-23.728-3.743-35.071,0c0,0-5.931,1.977-5.648,8.473v62.558c0,0-0.565,3.531,4.236,3.531h5.699h26.498h5.699
						C216.34,231.923,215.775,228.392,215.775,228.392z M208.11,227.362h-4.667h-21.703h-4.667c-3.932,0-3.47-3.114-3.47-3.114
						v-55.182c-0.231-5.73,4.626-7.474,4.626-7.474c9.291-3.301,19.432-3.302,28.724,0c0,0,4.858,1.743,4.626,7.474v55.182
						C211.579,224.247,212.042,227.362,208.11,227.362z"/>
					<path style="fill:#B9634D;" d="M211.539,232.408h-37.896c-1.811,0-3.137-0.478-3.942-1.422c-1-1.172-0.783-2.61-0.773-2.67
						l-0.006-62.481c-0.295-6.762,5.918-8.913,5.98-8.934c11.407-3.763,23.97-3.763,35.377,0c0.064,0.021,6.276,2.171,5.982,8.954
						l0.001,62.504c0.032,0.26,0.134,1.554-0.78,2.626C214.676,231.929,213.35,232.408,211.539,232.408z M192.591,155.048
						c-5.89,0-11.778,0.924-17.384,2.774c-0.226,0.077-5.579,1.95-5.316,7.992l0,62.578c-0.007,0.085-0.156,1.148,0.556,1.973
						c0.613,0.711,1.688,1.072,3.196,1.072h37.896c1.508,0,2.583-0.361,3.196-1.072c0.711-0.825,0.563-1.889,0.561-1.899
						l-0.006-0.074v-62.558c0.263-6.063-5.09-7.936-5.318-8.014C204.369,155.973,198.479,155.048,192.591,155.048z M208.11,227.846
						h-31.038c-1.459,0-2.546-0.402-3.23-1.195c-0.917-1.063-0.728-2.417-0.719-2.474l-0.005-55.111
						c-0.242-5.997,4.896-7.912,4.948-7.93c9.368-3.328,19.685-3.328,29.051,0c0.053,0.019,5.192,1.933,4.949,7.95l0.001,55.162l0,0
						c0.005,0,0.188,1.346-0.725,2.403C210.656,227.445,209.569,227.846,208.11,227.846z M192.592,159.608
						c-4.811,0-9.621,0.814-14.201,2.44c-0.182,0.066-4.518,1.706-4.304,6.997l0,55.202c-0.006,0.079-0.133,1.056,0.496,1.778
						c0.492,0.565,1.329,0.851,2.489,0.851h31.038c1.165,0,2.004-0.289,2.496-0.858c0.62-0.719,0.496-1.69,0.495-1.699
						l-0.005-55.253c0.214-5.311-4.121-6.951-4.306-7.017C202.212,160.422,197.402,159.608,192.592,159.608z"/>
				</g>
			</g>
			<g>
				<g>
					<path style="fill:#128BB2;" d="M384.668,228.392v-62.558c0.282-6.496-5.649-8.473-5.649-8.473
						c-11.345-3.743-23.728-3.743-35.071,0c0,0-5.931,1.977-5.648,8.473v62.558c0,0-0.565,3.531,4.236,3.531h5.699h26.498h5.699
						C385.233,231.923,384.668,228.392,384.668,228.392z"/>
				</g>
				<g>
					<path style="fill:#128BB2;" d="M384.668,228.392v-62.558c0.282-6.496-5.649-8.473-5.649-8.473
						c-11.345-3.743-23.728-3.743-35.071,0c0,0-5.931,1.977-5.648,8.473v62.558c0,0-0.565,3.531,4.236,3.531h5.699h26.498h5.699
						C385.233,231.923,384.668,228.392,384.668,228.392z"/>
				</g>
				<path style="fill:#59B5DC;" d="M378.043,221.473v-49.84c0.19-5.175-3.796-6.751-3.796-6.751c-7.624-2.982-15.945-2.982-23.568,0
					c0,0-3.985,1.575-3.796,6.751v49.84c0,0-0.38,2.813,2.847,2.813h3.829h17.807h3.829
					C378.422,224.286,378.043,221.473,378.043,221.473z"/>
				<g>
					<polygon style="fill:#EC9F6C;" points="382.563,174.598 382.563,170.693 363.284,170.693 363.284,156.169 359.683,156.169 
						359.683,170.693 341.467,170.693 341.467,174.598 359.683,174.598 359.683,189.227 341.467,189.227 341.467,193.133 
						359.683,193.133 359.683,207.761 341.467,207.761 341.467,211.667 359.683,211.667 359.683,230.307 363.284,230.307 
						363.284,211.667 382.563,211.667 382.563,207.761 363.284,207.761 363.284,193.133 382.563,193.133 382.563,189.227 
						363.284,189.227 363.284,174.598 					"/>
					<path style="fill:#B9634D;" d="M363.77,230.792h-4.571v-18.64h-18.217v-4.876h18.217v-13.659h-18.217v-4.876h18.217v-13.66
						h-18.217v-4.876h18.217v-14.523h4.571v14.523h19.279v4.876H363.77v13.66h19.279v4.876H363.77v13.659h19.279v4.876H363.77
						V230.792z M360.168,229.822h2.631v-18.64h19.279v-2.936H362.8v-15.599h19.279v-2.936H362.8v-15.6h19.279v-2.936H362.8v-14.523
						h-2.631v14.523h-18.217v2.936h18.217v15.6h-18.217v2.936h18.217v15.599h-18.217v2.936h18.217V229.822z"/>
				</g>
				<g>
					<path style="fill:#EC9F6C;" d="M384.668,228.392v-62.558c0.282-6.496-5.649-8.473-5.649-8.473
						c-11.345-3.743-23.728-3.743-35.071,0c0,0-5.931,1.977-5.648,8.473v62.558c0,0-0.565,3.531,4.236,3.531h5.699h26.498h5.699
						C385.233,231.923,384.668,228.392,384.668,228.392z M377.003,227.362h-4.667h-21.703h-4.667c-3.932,0-3.47-3.114-3.47-3.114
						v-55.182c-0.231-5.73,4.626-7.474,4.626-7.474c9.291-3.301,19.432-3.302,28.724,0c0,0,4.858,1.743,4.627,7.474v55.182
						C380.472,224.247,380.935,227.362,377.003,227.362z"/>
					<path style="fill:#B9634D;" d="M380.431,232.408h-37.895c-1.811,0-3.138-0.478-3.942-1.422c-1-1.172-0.783-2.61-0.773-2.67
						l-0.006-62.481c-0.294-6.762,5.918-8.913,5.98-8.934c11.407-3.762,23.97-3.763,35.377,0c0.064,0.021,6.276,2.171,5.981,8.954
						l0.001,62.504c0.032,0.26,0.134,1.554-0.78,2.626C383.569,231.929,382.243,232.408,380.431,232.408z M361.484,155.048
						c-5.89,0-11.778,0.924-17.384,2.774c-0.226,0.077-5.578,1.95-5.316,7.992l0,62.578c-0.007,0.085-0.156,1.148,0.556,1.973
						c0.613,0.711,1.689,1.072,3.196,1.072h37.895c1.508,0,2.583-0.361,3.196-1.072c0.711-0.825,0.563-1.889,0.561-1.899
						l-0.006-0.074v-62.558c0.263-6.063-5.09-7.936-5.318-8.014C373.262,155.973,367.372,155.048,361.484,155.048z M377.002,227.846
						h-31.038c-1.459,0-2.546-0.402-3.23-1.195c-0.917-1.063-0.728-2.417-0.719-2.474l-0.005-55.111
						c-0.243-5.997,4.895-7.912,4.947-7.93c9.368-3.328,19.685-3.328,29.051,0c0.053,0.019,5.192,1.933,4.948,7.95l0.001,55.162l0,0
						c0.005,0,0.188,1.346-0.725,2.403C379.549,227.445,378.462,227.846,377.002,227.846z M361.485,159.608
						c-4.811,0-9.621,0.814-14.201,2.44c-0.182,0.066-4.517,1.706-4.304,6.997l0,55.202c-0.006,0.079-0.133,1.057,0.496,1.778
						c0.492,0.565,1.329,0.851,2.488,0.851h31.038c1.165,0,2.004-0.289,2.496-0.858c0.62-0.719,0.496-1.69,0.495-1.699
						l-0.005-55.253c0.215-5.333-4.26-7.001-4.305-7.017C371.105,160.422,366.294,159.608,361.485,159.608z"/>
				</g>
			</g>
			<g>
				
					<ellipse transform="matrix(0.9239 -0.3827 0.3827 0.9239 -16.5349 112.6873)" style="fill:#FDC68D;" cx="274.991" cy="97.907" rx="21.087" ry="21.087"/>
				<g>
					<g>
						
							<ellipse transform="matrix(0.7071 -0.7071 0.7071 0.7071 12.8727 221.2903)" style="fill:#59939E;" cx="273.557" cy="95.106" rx="19.449" ry="19.449"/>
						<path style="fill:#3C6870;" d="M273.558,115.04c-10.991,0-19.934-8.942-19.934-19.934c0-10.991,8.943-19.933,19.934-19.933
							c10.992,0,19.934,8.942,19.934,19.933C293.491,106.098,284.549,115.04,273.558,115.04z M273.558,76.143
							c-10.457,0-18.964,8.506-18.964,18.963s8.507,18.964,18.964,18.964c10.457,0,18.964-8.507,18.964-18.964
							S284.014,76.143,273.558,76.143z"/>
					</g>
					<circle style="fill:#128BB2;" cx="273.557" cy="95.106" r="16.052"/>
					<g style="opacity:0.49;">
						<path style="fill:#128BB2;" d="M273.557,79.054c-8.865,0-16.052,7.187-16.052,16.052c0,8.865,7.187,16.052,16.052,16.052
							c8.865,0,16.052-7.187,16.052-16.052C289.61,86.241,282.423,79.054,273.557,79.054z M271.573,105.142
							c-6.164,0-11.161-4.997-11.161-11.161c0-6.164,4.997-11.161,11.161-11.161c6.164,0,11.161,4.997,11.161,11.161
							C282.734,100.145,277.737,105.142,271.573,105.142z"/>
					</g>
					<g>
						<path style="fill:#EC9F6C;" d="M289.718,92.798h-13.852V78.946c0-1.27-1.039-2.309-2.309-2.309
							c-1.27,0-2.309,1.039-2.309,2.309v13.852h-13.852c-1.27,0-2.309,1.039-2.309,2.309c0,1.27,1.039,2.309,2.309,2.309h13.852
							v13.852c0,1.27,1.039,2.309,2.309,2.309c1.27,0,2.309-1.039,2.309-2.309V97.415h13.852c1.27,0,2.309-1.039,2.309-2.309
							C292.027,93.837,290.988,92.798,289.718,92.798z"/>
						<path style="fill:#B9634D;" d="M273.558,114.061c-1.541,0-2.794-1.253-2.794-2.793V97.901h-13.367
							c-1.54,0-2.793-1.253-2.793-2.793c0-1.541,1.253-2.795,2.793-2.795h13.367V78.946c0-1.54,1.253-2.793,2.794-2.793
							c1.54,0,2.794,1.253,2.794,2.793v13.367h13.367c1.54,0,2.793,1.253,2.793,2.795c0,1.54-1.253,2.793-2.793,2.793h-13.367
							v13.367C276.351,112.808,275.098,114.061,273.558,114.061z M257.396,93.283c-1.006,0-1.823,0.818-1.823,1.825
							c0,1.005,0.818,1.824,1.823,1.824h14.337v14.337c0,1.005,0.818,1.823,1.824,1.823c1.006,0,1.824-0.818,1.824-1.823V96.931
							h14.337c1.006,0,1.823-0.819,1.823-1.824c0-1.006-0.818-1.825-1.823-1.825h-14.337V78.946c0-1.005-0.818-1.823-1.824-1.823
							c-1.005,0-1.824,0.818-1.824,1.823v14.337H257.396z"/>
					</g>
					<g>
						<path style="fill:#EC9F6C;" d="M273.557,75.657c-10.742,0-19.449,8.708-19.449,19.449c0,10.741,8.707,19.449,19.449,19.449
							c10.741,0,19.449-8.708,19.449-19.449C293.007,84.365,284.299,75.657,273.557,75.657z M273.557,111.159
							c-8.865,0-16.052-7.187-16.052-16.052s7.187-16.052,16.052-16.052s16.052,7.187,16.052,16.052
							S282.423,111.159,273.557,111.159z"/>
						<path style="fill:#B9634D;" d="M273.558,115.04c-10.991,0-19.934-8.942-19.934-19.933c0-10.992,8.943-19.934,19.934-19.934
							c10.992,0,19.934,8.942,19.934,19.934C293.491,106.098,284.549,115.04,273.558,115.04z M273.558,76.143
							c-10.457,0-18.964,8.507-18.964,18.964c0,10.457,8.507,18.963,18.964,18.963c10.457,0,18.964-8.506,18.964-18.963
							C292.521,84.65,284.014,76.143,273.558,76.143z M273.558,111.643c-9.119,0-16.537-7.418-16.537-16.536
							s7.419-16.537,16.537-16.537c9.118,0,16.537,7.419,16.537,16.537S282.676,111.643,273.558,111.643z M273.558,79.54
							c-8.584,0-15.567,6.983-15.567,15.568c0,8.583,6.984,15.566,15.567,15.566c8.584,0,15.567-6.983,15.567-15.566
							C289.125,86.523,282.141,79.54,273.558,79.54z"/>
					</g>
				</g>
			</g>
			<g>
				<g>
					<path style="fill:#EA8F67;" d="M298.202,148.03c-5.412-1.153-12.083-1.785-18.014-2.132c0,0-3.036-0.442-7.51-0.319
						c-4.474-0.122-7.51,0.319-7.51,0.319c-5.931,0.346-12.603,0.978-18.014,2.132c0,0-5.084,0.424-5.296,5.931v99.768h25.842h9.956
						h25.842v-99.768C303.285,148.454,298.202,148.03,298.202,148.03z"/>
					<path style="fill:#945B14;" d="M303.982,254.214h-62.61V153.961c0.226-5.886,5.685-6.409,5.74-6.414
						c4.592-0.982,10.677-1.703,18.026-2.132c0.084-0.014,3.083-0.444,7.552-0.32c4.436-0.12,7.441,0.306,7.566,0.324
						c7.295,0.425,13.373,1.143,18.023,2.132c0.484,0.057,5.487,0.78,5.703,6.391L303.982,254.214z M242.342,253.245h60.67v-99.284
						c-0.193-5.001-4.661-5.432-4.851-5.448l-0.061-0.009c-4.606-0.981-10.642-1.695-17.942-2.122
						c-0.071-0.009-3.089-0.443-7.468-0.318c-4.401-0.123-7.424,0.31-7.454,0.314c-7.341,0.431-13.378,1.144-17.983,2.126
						c-0.25,0.026-4.72,0.477-4.912,5.475L242.342,253.245z"/>
				</g>
				<g>
					<path style="fill:#96D5EA;" d="M294.537,152.171c-4.635-1.108-10.348-1.715-15.428-2.048c0,0-2.6-0.424-6.432-0.307
						c-3.832-0.118-6.432,0.307-6.432,0.307c-5.079,0.333-10.793,0.94-15.428,2.048c0,0-4.354,0.407-4.535,5.699v95.86h22.132h8.526
						h22.132v-95.86C298.89,152.578,294.537,152.171,294.537,152.171z"/>
					<path style="fill:#67BBE8;" d="M299.557,254.214h-53.759v-96.345c0.194-5.669,4.927-6.177,4.975-6.182
						c3.925-0.943,9.143-1.637,15.441-2.049c0.062-0.012,2.642-0.421,6.478-0.308c3.806-0.112,6.387,0.296,6.495,0.313
						c6.239,0.405,11.448,1.097,15.438,2.049c0.477,0.064,4.748,0.796,4.932,6.159L299.557,254.214z M246.768,253.245h51.819
						v-95.375c-0.164-4.766-3.936-5.2-4.097-5.216l-0.066-0.011c-3.94-0.943-9.104-1.627-15.347-2.036
						c-0.072-0.01-2.653-0.425-6.385-0.306c-3.764-0.117-6.343,0.296-6.368,0.3c-6.29,0.414-11.453,1.099-15.393,2.041
						c-0.226,0.027-3.999,0.461-4.163,5.244L246.768,253.245z"/>
				</g>
				<g>
					<path style="fill:#AB5A47;" d="M294.537,152.171c-4.635-1.108-10.348-1.715-15.428-2.048c0,0-2.6-0.424-6.432-0.307
						c-3.832-0.118-6.432,0.307-6.432,0.307c-5.079,0.333-10.793,0.94-15.428,2.048c0,0-4.354,0.407-4.535,5.699v95.86h22.132h8.526
						h22.132v-95.86C298.89,152.578,294.537,152.171,294.537,152.171z"/>
					<path style="fill:#945B14;" d="M299.557,254.214h-53.759v-96.345c0.194-5.669,4.927-6.177,4.975-6.182
						c3.925-0.943,9.143-1.637,15.441-2.049c0.062-0.012,2.642-0.421,6.478-0.308c3.806-0.112,6.387,0.296,6.495,0.313
						c6.239,0.405,11.448,1.097,15.438,2.049c0.477,0.064,4.748,0.796,4.932,6.159L299.557,254.214z M246.768,253.245h51.819
						v-95.375c-0.164-4.766-3.936-5.2-4.097-5.216l-0.066-0.011c-3.94-0.943-9.104-1.627-15.347-2.036
						c-0.072-0.01-2.653-0.425-6.385-0.306c-3.764-0.117-6.343,0.296-6.368,0.3c-6.29,0.414-11.453,1.099-15.393,2.041
						c-0.226,0.027-3.999,0.461-4.163,5.244L246.768,253.245z"/>
				</g>
				<path style="fill:#EB8D4B;" d="M293.301,156.034c-4.191-1.066-9.357-1.65-13.949-1.97c0,0-2.351-0.408-5.815-0.295
					c-3.465-0.113-5.815,0.295-5.815,0.295c-4.592,0.32-9.759,0.904-13.949,1.97c0,0-3.937,0.392-4.101,5.482v92.213h20.011h7.709
					h20.011v-92.213C297.237,156.426,293.301,156.034,293.301,156.034z"/>
				<path style="fill:#439CC2;" d="M261.106,204.516c0,2.457-1.991,4.448-4.448,4.448c-2.457,0-4.448-1.992-4.448-4.448
					c0-2.457,1.992-4.448,4.448-4.448C259.115,200.068,261.106,202.059,261.106,204.516z"/>
				<g>
					<g>
						<path style="fill:#EA8F67;" d="M260.894,203.527c0,2.457-1.992,4.448-4.448,4.448c-2.457,0-4.448-1.991-4.448-4.448
							c0-2.457,1.992-4.448,4.448-4.448C258.903,199.079,260.894,201.071,260.894,203.527z"/>
						<path style="fill:#945B14;" d="M256.446,208.461c-2.72,0-4.933-2.213-4.933-4.933c0-2.721,2.213-4.933,4.933-4.933
							c2.72,0,4.933,2.213,4.933,4.933C261.379,206.248,259.166,208.461,256.446,208.461z M256.446,199.564
							c-2.185,0-3.963,1.778-3.963,3.963s1.778,3.963,3.963,3.963s3.963-1.778,3.963-3.963S258.631,199.564,256.446,199.564z"/>
					</g>
					<path style="fill:#FFE165;" d="M257.901,202.045c0,1.309-1.061,2.37-2.37,2.37c-1.309,0-2.37-1.061-2.37-2.37
						c0-1.309,1.061-2.37,2.37-2.37C256.84,199.675,257.901,200.736,257.901,202.045z"/>
				</g>
			</g>
			<g>
				<g>
					<g>
						<path style="fill:#97A8AD;" d="M325.153,270.39H220.201c-1.726,0-3.137-1.412-3.137-3.137v-9.962
							c0-1.726,1.412-3.137,3.137-3.137h104.953c1.725,0,3.137,1.412,3.137,3.137v9.962
							C328.291,268.978,326.879,270.39,325.153,270.39z"/>
						<path style="fill:#757679;" d="M325.248,270.875H220.107c-1.946,0-3.529-1.583-3.529-3.529v-10.15
							c0-1.946,1.583-3.529,3.529-3.529h105.141c1.945,0,3.528,1.583,3.528,3.529v10.15
							C328.776,269.292,327.193,270.875,325.248,270.875z M220.107,254.638c-1.411,0-2.559,1.148-2.559,2.559v10.15
							c0,1.41,1.148,2.559,2.559,2.559h105.141c1.411,0,2.558-1.148,2.558-2.559v-10.15c0-1.411-1.148-2.559-2.558-2.559H220.107z"
							/>
					</g>
					<g>
						<path style="fill:#BEC0C2;" d="M217.063,261.444v4.815c0,2.272,1.859,4.131,4.131,4.131H324.16
							c2.272,0,4.131-1.859,4.131-4.131v-4.815H217.063z"/>
					</g>
					<g>
						<path style="fill:#97A8AD;" d="M328.059,277.443H217.295c-1.725,0-3.137-1.412-3.137-3.137v-7.784
							c0-1.725,1.412-3.137,3.137-3.137h110.764c1.726,0,3.137,1.412,3.137,3.137v7.784
							C331.196,276.031,329.785,277.443,328.059,277.443z"/>
						<path style="fill:#757679;" d="M328.153,277.927H217.201c-1.946,0-3.529-1.583-3.529-3.528v-7.972
							c0-1.946,1.583-3.529,3.529-3.529h110.952c1.945,0,3.528,1.583,3.528,3.529v7.972
							C331.681,276.345,330.098,277.927,328.153,277.927z M217.201,263.869c-1.411,0-2.559,1.148-2.559,2.559v7.972
							c0,1.41,1.148,2.558,2.559,2.558h110.952c1.411,0,2.558-1.147,2.558-2.558v-7.972c0-1.411-1.148-2.559-2.558-2.559H217.201z"
							/>
					</g>
					<g>
						<path style="fill:#BEC0C2;" d="M214.158,270.429v2.883c0,2.272,1.859,4.131,4.131,4.131h108.777
							c2.272,0,4.131-1.859,4.131-4.131v-2.883H214.158z"/>
					</g>
					<g>
						<path style="fill:#97A8AD;" d="M330.042,289.598h-114.73c-1.726,0-3.137-1.412-3.137-3.137v-10.74
							c0-1.726,1.412-3.137,3.137-3.137h114.73c1.725,0,3.137,1.412,3.137,3.137v10.74
							C333.179,288.186,331.767,289.598,330.042,289.598z"/>
						<path style="fill:#757679;" d="M330.136,290.083H215.218c-1.945,0-3.528-1.583-3.528-3.529v-10.928
							c0-1.946,1.583-3.529,3.528-3.529h114.918c1.946,0,3.529,1.583,3.529,3.529v10.928
							C333.664,288.5,332.082,290.083,330.136,290.083z M215.218,273.068c-1.411,0-2.558,1.148-2.558,2.559v10.928
							c0,1.41,1.148,2.559,2.558,2.559h114.918c1.411,0,2.559-1.148,2.559-2.559v-10.928c0-1.41-1.148-2.559-2.559-2.559H215.218z"
							/>
					</g>
					<g>
						<path style="fill:#BEC0C2;" d="M212.175,283.131v2.336c0,2.272,1.859,4.131,4.131,4.131h112.743
							c2.272,0,4.131-1.859,4.131-4.131v-2.336H212.175z"/>
					</g>
				</g>
				<path style="fill:#FDE1DB;" d="M213.897,277.438c0,0,0.232-3.021,3.834-3.485h109.09c0,0,4.182-0.465,4.415,3.369
					c0,0-1.394-2.207-6.506-2.207h-106.07C218.661,275.114,216.453,274.65,213.897,277.438z"/>
				<path style="fill:#FDE1DB;" d="M215.408,268.26c0,0,0.227-3.306,3.743-3.814h106.498c0,0,4.083-0.509,4.31,3.687
					c0,0-1.361-2.416-6.351-2.416H220.058C220.058,265.717,217.903,265.208,215.408,268.26z"/>
				<path style="fill:#FDE1DB;" d="M217.963,258.966c0,0,0.216-3.005,3.564-3.468h101.422c0,0,3.888-0.462,4.104,3.352
					c0,0-1.296-2.196-6.049-2.196h-98.613C222.392,256.654,220.34,256.192,217.963,258.966z"/>
			</g>
			<g>
				<path style="fill:#FDC68D;" d="M165.73,253.395h-10.469c-1.175,0-2.137-0.962-2.137-2.137v-1.323
					c0-1.175,0.962-2.137,2.137-2.137h10.469c1.175,0,2.137,0.962,2.137,2.137v1.323
					C167.867,252.434,166.906,253.395,165.73,253.395z"/>
				<path style="fill:#FDC68D;" d="M182.043,253.395h-10.469c-1.175,0-2.137-0.962-2.137-2.137v-1.323
					c0-1.175,0.962-2.137,2.137-2.137h10.469c1.175,0,2.137,0.962,2.137,2.137v1.323
					C184.18,252.434,183.219,253.395,182.043,253.395z"/>
				<path style="fill:#FDC68D;" d="M174.877,260.084h-10.469c-1.175,0-2.137-0.962-2.137-2.137v-1.323
					c0-1.175,0.962-2.137,2.137-2.137h10.469c1.175,0,2.137,0.962,2.137,2.137v1.323
					C177.014,259.122,176.052,260.084,174.877,260.084z"/>
			</g>
			<g>
				<path style="fill:#FDC68D;" d="M343.473,254.752h-8.925c-1.135,0-2.064-0.929-2.064-2.064v-0.827
					c0-1.135,0.929-2.064,2.064-2.064h8.925c1.135,0,2.064,0.929,2.064,2.064v0.827
					C345.538,253.824,344.608,254.752,343.473,254.752z"/>
				<path style="fill:#FDC68D;" d="M357.917,254.752h-8.925c-1.135,0-2.064-0.929-2.064-2.064v-0.827
					c0-1.135,0.929-2.064,2.064-2.064h8.925c1.135,0,2.064,0.929,2.064,2.064v0.827
					C359.981,253.824,359.052,254.752,357.917,254.752z"/>
				<path style="fill:#FDC68D;" d="M351.571,260.675h-8.925c-1.135,0-2.064-0.929-2.064-2.064v-0.827
					c0-1.135,0.929-2.064,2.064-2.064h8.925c1.135,0,2.064,0.929,2.064,2.064v0.827
					C353.635,259.746,352.707,260.675,351.571,260.675z"/>
			</g>
			<g>
				<path style="fill:#FDC68D;" d="M376.266,274h-8.925c-1.135,0-2.064-0.929-2.064-2.064v-0.827c0-1.135,0.929-2.064,2.064-2.064
					h8.925c1.135,0,2.064,0.929,2.064,2.064v0.827C378.33,273.071,377.401,274,376.266,274z"/>
				<path style="fill:#FDC68D;" d="M390.709,274h-8.925c-1.135,0-2.064-0.929-2.064-2.064v-0.827c0-1.135,0.929-2.064,2.064-2.064
					h8.925c1.135,0,2.064,0.929,2.064,2.064v0.827C392.774,273.071,391.845,274,390.709,274z"/>
				<path style="fill:#FDC68D;" d="M384.364,279.922h-8.925c-1.135,0-2.064-0.929-2.064-2.064v-0.827
					c0-1.135,0.929-2.064,2.064-2.064h8.925c1.135,0,2.064,0.929,2.064,2.064v0.827
					C386.428,278.994,385.499,279.922,384.364,279.922z"/>
			</g>
			<g>
				<path style="fill:#FDC68D;" d="M204.306,273.577h-8.925c-1.135,0-2.064-0.929-2.064-2.064v-0.827
					c0-1.135,0.929-2.064,2.064-2.064h8.925c1.135,0,2.064,0.929,2.064,2.064v0.827C206.37,272.648,205.441,273.577,204.306,273.577
					z"/>
				<path style="fill:#FDC68D;" d="M197.96,279.499h-8.925c-1.135,0-2.064-0.929-2.064-2.064v-0.827
					c0-1.135,0.929-2.064,2.064-2.064h8.925c1.135,0,2.064,0.929,2.064,2.064v0.827C200.025,278.57,199.096,279.499,197.96,279.499z
					"/>
			</g>
		</g>
	</g>
</g>
</svg>
